<?xml version="1.0" encoding="utf-8"?>
<!-- Generator: Adobe Illustrator 27.5.0, SVG Export Plug-In . SVG Version: 6.00 Build 0)  -->
<svg version="1.1" xmlns="http://www.w3.org/2000/svg" xmlns:xlink="http://www.w3.org/1999/xlink" x="0px" y="0px"
	 viewBox="0 0 499.999 500" style="enable-background:new 0 0 499.999 500;" xml:space="preserve">
<g id="BACKGROUND">
	<rect y="0.001" style="fill:#23231C;" width="499.999" height="500"/>
</g>
<g id="OBJECTS">
	<g>
		
			<radialGradient id="XMLID_00000128480251322397733410000016678294964305479348_" cx="163.6555" cy="91.5005" r="91.5001" gradientUnits="userSpaceOnUse">
			<stop  offset="0" style="stop-color:#F5943F"/>
			<stop  offset="1" style="stop-color:#422A1D"/>
		</radialGradient>
		
			<circle id="XMLID_88_" style="opacity:0.28;fill:url(#XMLID_00000128480251322397733410000016678294964305479348_);" cx="163.656" cy="91.501" r="91.5"/>
		<circle id="XMLID_53_" style="fill:#F5943F;" cx="165.021" cy="91.956" r="24.582"/>
		<g>
			<g>
				<path style="fill:#82916B;" d="M348.911,158.054c-0.147-0.157-0.345-0.257-0.559-0.281l-2.645-0.288
					c-0.073-0.008-0.14,0.02-0.211,0.029c0.071-0.261,0.122-0.53,0.122-0.813c0-1.177-0.667-2.188-1.639-2.712
					c0.032-0.092,0.059-0.188,0.059-0.291v-22.728c0-0.64-0.663-1.068-1.251-0.808c-0.278,0.123-0.476,0.38-0.519,0.681
					l-2.997,20.501c-0.03,0.212,0.017,0.428,0.133,0.608l1.401,2.156c-0.851,0.553-1.418,1.506-1.418,2.593
					c0,0.359,0.073,0.698,0.187,1.019c-0.275-0.065-0.574-0.014-0.801,0.189l-16.94,15.253c-0.478,0.43-0.352,1.206,0.236,1.465
					c0.279,0.123,0.602,0.095,0.856-0.074l17.293-11.55c0.179-0.119,0.308-0.299,0.363-0.506l0.603-2.246l-0.009,0.265
					c0.008,0.003,0.017,0.004,0.025,0.006l-2.56,94.458h7.722l-2.558-94.402c0.007-0.002,0.014-0.002,0.021-0.004l-0.026-0.733
					c0.053,0.152,0.132,0.297,0.267,0.406l17.727,14.342c0.5,0.404,1.252,0.163,1.42-0.455c0.08-0.293,0.004-0.607-0.203-0.83
					L348.911,158.054z"/>
				<path style="fill:#82916B;" d="M410.13,189.54l-14.1-15.249c-0.147-0.157-0.345-0.257-0.559-0.281l-2.646-0.288
					c-0.073-0.008-0.14,0.02-0.211,0.029c0.071-0.261,0.122-0.53,0.122-0.813c0-1.177-0.667-2.188-1.639-2.712
					c0.032-0.092,0.059-0.188,0.059-0.291v-22.727c0-0.64-0.663-1.068-1.251-0.808c-0.278,0.123-0.476,0.38-0.519,0.681
					l-2.997,20.501c-0.03,0.212,0.017,0.428,0.133,0.608l1.401,2.156c-0.853,0.553-1.418,1.506-1.418,2.593
					c0,0.359,0.073,0.698,0.187,1.019c-0.275-0.066-0.574-0.015-0.801,0.189l-16.94,15.254c-0.478,0.43-0.352,1.206,0.236,1.465
					c0.279,0.123,0.603,0.095,0.856-0.074l17.293-11.55c0.179-0.119,0.308-0.299,0.363-0.506l0.603-2.246l-0.009,0.265
					c0.008,0.003,0.017,0.004,0.024,0.006l-2.559,94.459h7.722l-2.558-94.402c0.007-0.003,0.014-0.003,0.02-0.005l-0.026-0.733
					c0.053,0.152,0.132,0.297,0.267,0.406l17.727,14.342c0.5,0.404,1.252,0.163,1.42-0.455
					C410.414,190.076,410.337,189.763,410.13,189.54z"/>
			</g>
			<path style="fill:#82916B;" d="M270.577,144.107l26.236,0.453c0.272,0.004,0.535-0.089,0.741-0.263l2.563-2.15
				c0.13-0.109,0.226-0.246,0.294-0.395c0.272,0.434,0.634,0.822,1.082,1.133c0.055,0.038,0.114,0.059,0.17,0.094l-0.001,0.021
				c-0.005-0.002-0.01-0.003-0.015-0.005l-0.042,1.212c0.007,0.003,0.015,0.003,0.021,0.005l-2.593,87.256
				c0.853-0.056,1.711-0.094,2.577-0.094c2.008,0,3.984,0.157,5.921,0.451l-2.352-79.051l5.538,19.214
				c0.224,0.775,1.176,1.064,1.797,0.547c0.295-0.246,0.442-0.625,0.392-1.004l-3.526-25.86c-0.037-0.267-0.17-0.512-0.374-0.689
				l-2.524-2.192c-0.065-0.057-0.138-0.103-0.212-0.143c0.252-0.213,0.489-0.449,0.688-0.731c0.853-1.216,0.895-2.739,0.271-3.978
				c0.1-0.072,0.196-0.151,0.271-0.258l16.461-23.485c0.464-0.662,0.089-1.579-0.706-1.731c-0.378-0.072-0.768,0.053-1.031,0.332
				l-17.944,19.039c-0.186,0.196-0.294,0.453-0.303,0.723l-0.112,3.231c-1.282-0.04-2.557,0.54-3.345,1.664
				c-0.26,0.371-0.43,0.775-0.545,1.187c-0.238-0.265-0.584-0.427-0.965-0.379l-28.554,3.626c-0.804,0.102-1.236,0.994-0.815,1.683
				C269.838,143.898,270.193,144.1,270.577,144.107z"/>
		</g>
		<g>
			<linearGradient id="SVGID_1_" gradientUnits="userSpaceOnUse" x1="360.7632" y1="243.6274" x2="360.7632" y2="360.5929">
				<stop  offset="0" style="stop-color:#BFA282"/>
				<stop  offset="0.2395" style="stop-color:#9E876C"/>
				<stop  offset="0.7638" style="stop-color:#4B4336"/>
				<stop  offset="1" style="stop-color:#23231C"/>
			</linearGradient>
			<path style="fill:url(#SVGID_1_);" d="M324.651,228.71v83.124h72.225V228.71H324.651z M337.038,296.037h-6.365v-6.366h6.365
				V296.037z M337.038,277.34h-6.365v-6.366h6.365V277.34z M337.038,259.737h-6.365v-6.365h6.365V259.737z M337.038,242.962h-6.365
				v-6.366h6.365V242.962z M354.34,296.037h-6.365v-6.366h6.365V296.037z M354.34,277.34h-6.365v-6.366h6.365V277.34z
				 M354.34,259.737h-6.365v-6.365h6.365V259.737z M354.34,242.962h-6.365v-6.366h6.365V242.962z M371.642,296.037h-6.365v-6.366
				h6.365V296.037z M371.642,277.34h-6.365v-6.366h6.365V277.34z M371.642,259.737h-6.365v-6.365h6.365V259.737z M371.642,242.962
				h-6.365v-6.366h6.365V242.962z M388.945,296.037h-6.365v-6.366h6.365V296.037z M388.945,277.34h-6.365v-6.366h6.365V277.34z
				 M388.945,259.737h-6.365v-6.365h6.365V259.737z M388.945,242.962h-6.365v-6.366h6.365V242.962z"/>
			
				<linearGradient id="SVGID_00000146459970315426362160000002711746847121836185_" gradientUnits="userSpaceOnUse" x1="283.7891" y1="242.0551" x2="283.7891" y2="359.0206">
				<stop  offset="0" style="stop-color:#BFA282"/>
				<stop  offset="0.2395" style="stop-color:#9E876C"/>
				<stop  offset="0.7638" style="stop-color:#4B4336"/>
				<stop  offset="1" style="stop-color:#23231C"/>
			</linearGradient>
			<path style="fill:url(#SVGID_00000146459970315426362160000002711746847121836185_);" d="M259.51,227.138v83.124h48.558v-83.124
				H259.51z M272.065,290.528h-5.752v-5.752h5.752V290.528z M272.065,280.528h-5.752v-5.752h5.752V280.528z M272.065,270.111h-5.752
				v-5.753h5.752V270.111z M272.065,260h-5.752v-5.752h5.752V260z M272.065,250.001h-5.752v-5.752h5.752V250.001z M272.065,239.583
				h-5.752v-5.752h5.752V239.583z M281.969,290.528h-5.752v-5.752h5.752V290.528z M281.969,280.528h-5.752v-5.752h5.752V280.528z
				 M281.969,270.111h-5.752v-5.753h5.752V270.111z M281.969,260h-5.752v-5.752h5.752V260z M281.969,250.001h-5.752v-5.752h5.752
				V250.001z M281.969,239.583h-5.752v-5.752h5.752V239.583z M291.873,290.528h-5.752v-5.752h5.752V290.528z M291.873,280.528
				h-5.752v-5.752h5.752V280.528z M291.873,270.111h-5.752v-5.752h5.752V270.111z M291.873,260h-5.752v-5.752h5.752V260z
				 M291.873,250.001h-5.752v-5.752h5.752V250.001z M291.873,239.583h-5.752v-5.752h5.752V239.583z M301.777,290.528h-5.752v-5.752
				h5.752V290.528z M301.777,280.528h-5.752v-5.752h5.752V280.528z M301.777,270.111h-5.752v-5.752h5.752V270.111z M301.777,260
				h-5.752v-5.752h5.752V260z M301.777,250.001h-5.752v-5.752h5.752V250.001z M301.777,239.583h-5.752v-5.752h5.752V239.583z"/>
			
				<linearGradient id="SVGID_00000057860457065214546850000002743585239020436123_" gradientUnits="userSpaceOnUse" x1="220.2495" y1="126.6518" x2="220.2495" y2="277.8772">
				<stop  offset="0" style="stop-color:#BFA282"/>
				<stop  offset="0.2395" style="stop-color:#9E876C"/>
				<stop  offset="0.7638" style="stop-color:#4B4336"/>
				<stop  offset="1" style="stop-color:#23231C"/>
			</linearGradient>
			<path style="fill:url(#SVGID_00000057860457065214546850000002743585239020436123_);" d="M240.717,170.886l-1.978-7.771h-5.446
				l-7.322-33.475h-10.984l-7.753,33.475h-5.474l-1.978,7.771h-9.001v60.073h58.938v-60.073H240.717z M203.796,221.669h-6.365
				v-6.366h6.365V221.669z M203.796,209.414h-6.365v-6.366h6.365V209.414z M203.796,196.794h-6.365v-6.366h6.365V196.794z
				 M203.796,184.539h-6.365v-6.366h6.365V184.539z M216.887,221.669h-6.365v-6.366h6.365V221.669z M216.887,209.414h-6.365v-6.366
				h6.365V209.414z M216.887,196.794h-6.365v-6.366h6.365V196.794z M216.887,184.539h-6.365v-6.366h6.365V184.539z M229.978,221.669
				h-6.365v-6.366h6.365V221.669z M229.978,209.414h-6.365v-6.366h6.365V209.414z M229.978,196.794h-6.365v-6.366h6.365V196.794z
				 M229.978,184.539h-6.365v-6.366h6.365V184.539z M243.068,221.669h-6.365v-6.366h6.365V221.669z M243.068,209.414h-6.365v-6.366
				h6.365V209.414z M243.068,196.794h-6.365v-6.366h6.365V196.794z M243.068,184.539h-6.365v-6.366h6.365V184.539z"/>
			
				<linearGradient id="SVGID_00000129188636093038904420000010277818184941990528_" gradientUnits="userSpaceOnUse" x1="149.9182" y1="154.0552" x2="149.9182" y2="270.0595">
				<stop  offset="0" style="stop-color:#BFA282"/>
				<stop  offset="0.2395" style="stop-color:#9E876C"/>
				<stop  offset="0.7638" style="stop-color:#4B4336"/>
				<stop  offset="1" style="stop-color:#23231C"/>
			</linearGradient>
			<path style="fill:url(#SVGID_00000129188636093038904420000010277818184941990528_);" d="M125.639,156.347v77.721h48.558v-77.721
				H125.639z M136.181,220.234h-5.315v-6.366h5.315V220.234z M136.181,208.241h-5.315v-6.366h5.315V208.241z M136.181,195.985
				h-5.315v-6.366h5.315V195.985z M136.181,183.366h-5.315v-6.366h5.315V183.366z M136.181,171.11h-5.315v-6.366h5.315V171.11z
				 M147.11,220.234h-5.315v-6.366h5.315V220.234z M147.11,208.241h-5.315v-6.366h5.315V208.241z M147.11,195.985h-5.315v-6.366
				h5.315V195.985z M147.11,183.366h-5.315v-6.366h5.315V183.366z M147.11,171.11h-5.315v-6.366h5.315V171.11z M158.041,220.234
				h-5.315v-6.366h5.315V220.234z M158.041,208.241h-5.315v-6.366h5.315V208.241z M158.041,195.985h-5.315v-6.366h5.315V195.985z
				 M158.041,183.366h-5.315v-6.366h5.315V183.366z M158.041,171.11h-5.315v-6.366h5.315V171.11z M168.97,220.234h-5.315v-6.366
				h5.315V220.234z M168.97,208.241h-5.315v-6.366h5.315V208.241z M168.97,195.985h-5.315v-6.366h5.315V195.985z M168.97,183.366
				h-5.315v-6.366h5.315V183.366z M168.97,171.11h-5.315v-6.366h5.315V171.11z"/>
			
				<linearGradient id="SVGID_00000036963529160892572210000011695631125159084718_" gradientUnits="userSpaceOnUse" x1="180.6485" y1="246.0551" x2="180.6485" y2="316.2686">
				<stop  offset="0" style="stop-color:#B9A880"/>
				<stop  offset="0.2482" style="stop-color:#988B6A"/>
				<stop  offset="0.7918" style="stop-color:#454132"/>
				<stop  offset="1" style="stop-color:#23231C"/>
			</linearGradient>
			<path style="fill:url(#SVGID_00000036963529160892572210000011695631125159084718_);" d="M111.579,226.984v85.536h138.14v-85.536
				H111.579z M131.114,292.247h-8.742v-8.742h8.742V292.247z M131.114,277.443h-8.742v-8.742h8.742V277.443z M131.114,260.545
				h-8.742v-8.742h8.742V260.545z M131.114,245.742h-8.742v-8.742h8.742V245.742z M149.091,292.247h-8.742v-8.742h8.742V292.247z
				 M149.091,277.443h-8.742v-8.742h8.742V277.443z M149.091,260.545h-8.742v-8.742h8.742V260.545z M149.091,245.742h-8.742v-8.742
				h8.742V245.742z M167.068,292.247h-8.742v-8.742h8.742V292.247z M167.068,277.443h-8.742v-8.742h8.742V277.443z M167.068,260.545
				h-8.742v-8.742h8.742V260.545z M167.068,245.742h-8.742v-8.742h8.742V245.742z M185.046,292.247h-0.054h-8.688h-0.054v-8.742
				h0.054h8.688h0.054V292.247z M185.046,277.443h-0.054h-8.688h-0.054v-8.742h0.054h8.688h0.054V277.443z M185.046,260.545h-0.054
				h-8.688h-0.054v-8.742h0.054h8.688h0.054V260.545z M185.046,245.742h-0.054h-8.688h-0.054v-8.742h0.054h8.688h0.054V245.742z
				 M202.97,292.247h-8.742v-8.742h8.742V292.247z M202.97,277.443h-8.742v-8.742h8.742V277.443z M202.97,260.545h-8.742v-8.742
				h8.742V260.545z M202.97,245.742h-8.742v-8.742h8.742V245.742z M220.947,292.247h-8.742v-8.742h8.742V292.247z M220.947,277.443
				h-8.742v-8.742h8.742V277.443z M220.947,260.545h-8.742v-8.742h8.742V260.545z M220.947,245.742h-8.742v-8.742h8.742V245.742z
				 M238.924,292.247h-8.742v-8.742h8.742V292.247z M238.924,277.443h-8.742v-8.742h8.742V277.443z M238.924,260.545h-8.742v-8.742
				h8.742V260.545z M238.924,245.742h-8.742v-8.742h8.742V245.742z"/>
			
				<linearGradient id="SVGID_00000054963431364397162190000002785138374847246978_" gradientUnits="userSpaceOnUse" x1="64.7188" y1="211.9768" x2="64.7188" y2="345.8572">
				<stop  offset="0" style="stop-color:#B9A880"/>
				<stop  offset="0.2482" style="stop-color:#988B6A"/>
				<stop  offset="0.7918" style="stop-color:#454132"/>
				<stop  offset="1" style="stop-color:#23231C"/>
			</linearGradient>
			<path style="fill:url(#SVGID_00000054963431364397162190000002785138374847246978_);" d="M17.823,208.769v104.286h93.792V208.769
				H17.823z M31.402,302.968H22.66v-8.742h8.742V302.968z M31.402,288.165H22.66v-8.742h8.742V288.165z M31.402,271.872H22.66
				v-8.742h8.742V271.872z M31.402,257.068H22.66v-8.742h8.742V257.068z M31.402,240.17H22.66v-8.742h8.742V240.17z M31.402,225.367
				H22.66v-8.742h8.742V225.367z M49.379,302.968h-0.054h-8.688h-0.054v-8.742h0.054h8.688h0.054V302.968z M49.379,288.165h-0.054
				h-8.688h-0.054v-8.742h0.054h8.688h0.054V288.165z M49.379,271.872h-0.054h-8.688h-0.054v-8.742h0.054h8.688h0.054V271.872z
				 M49.379,257.068h-0.054h-8.688h-0.054v-8.742h0.054h8.688h0.054V257.068z M49.379,240.17h-0.054h-8.688h-0.054v-8.742h0.054
				h8.688h0.054V240.17z M49.379,225.367h-0.054h-8.688h-0.054v-8.742h0.054h8.688h0.054V225.367z M67.303,302.968h-8.742v-8.742
				h8.742V302.968z M67.303,288.165h-8.742v-8.742h8.742V288.165z M67.303,271.872h-8.742v-8.742h8.742V271.872z M67.303,257.068
				h-8.742v-8.742h8.742V257.068z M67.303,240.17h-8.742v-8.742h8.742V240.17z M67.303,225.367h-8.742v-8.742h8.742V225.367z
				 M85.28,302.968h-8.742v-8.742h8.742V302.968z M85.28,288.165h-8.742v-8.742h8.742V288.165z M85.28,271.872h-8.742v-8.742h8.742
				V271.872z M85.28,257.068h-8.742v-8.742h8.742V257.068z M85.28,240.17h-8.742v-8.742h8.742V240.17z M85.28,225.367h-8.742v-8.742
				h8.742V225.367z M103.258,302.968h-8.742v-8.742h8.742V302.968z M103.258,288.165h-8.742v-8.742h8.742V288.165z M103.258,271.872
				h-8.742v-8.742h8.742V271.872z M103.258,257.068h-8.742v-8.742h8.742V257.068z M103.258,240.17h-8.742v-8.742h8.742V240.17z
				 M103.258,225.367h-8.742v-8.742h8.742V225.367z"/>
			
				<linearGradient id="SVGID_00000001628963330023061010000013961311501997960852_" gradientUnits="userSpaceOnUse" x1="440.499" y1="211.7222" x2="440.499" y2="334.9738">
				<stop  offset="0" style="stop-color:#BFA282"/>
				<stop  offset="0.2395" style="stop-color:#9E876C"/>
				<stop  offset="0.7638" style="stop-color:#4B4336"/>
				<stop  offset="1" style="stop-color:#23231C"/>
			</linearGradient>
			<path style="fill:url(#SVGID_00000001628963330023061010000013961311501997960852_);" d="M475.664,302.968v-8.742h8.459v-6.061
				h-8.459v-8.742h8.459v-7.551h-8.459v-8.742h8.459v-6.061h-8.459v-8.742h8.459v-8.155h-8.459v-8.742h8.459v-6.062h-8.459v-8.742
				h8.459v-7.855h-87.247v96.007h87.247v-1.808H475.664z M412.549,302.968h-8.742v-8.742h8.742V302.968z M412.549,288.165h-8.742
				v-8.742h8.742V288.165z M412.549,271.872h-8.742v-8.742h8.742V271.872z M412.549,257.068h-8.742v-8.742h8.742V257.068z
				 M412.549,240.17h-8.742v-8.742h8.742V240.17z M412.549,225.367h-8.742v-8.742h8.742V225.367z M430.527,302.968h-0.054h-8.688
				h-0.055v-8.742h0.055h8.688h0.054V302.968z M430.527,288.165h-0.054h-8.688h-0.055v-8.742h0.055h8.688h0.054V288.165z
				 M430.527,271.872h-0.054h-8.688h-0.055v-8.742h0.055h8.688h0.054V271.872z M430.527,257.068h-0.054h-8.688h-0.055v-8.742h0.055
				h8.688h0.054V257.068z M430.527,240.17h-0.054h-8.688h-0.055v-8.742h0.055h8.688h0.054V240.17z M430.527,225.367h-0.054h-8.688
				h-0.055v-8.742h0.055h8.688h0.054V225.367z M448.451,302.968h-8.741v-8.742h8.741V302.968z M448.451,288.165h-8.741v-8.742h8.741
				V288.165z M448.451,271.872h-8.741v-8.742h8.741V271.872z M448.451,257.068h-8.741v-8.742h8.741V257.068z M448.451,240.17h-8.741
				v-8.742h8.741V240.17z M448.451,225.367h-8.741v-8.742h8.741V225.367z M466.428,302.968h-8.742v-8.742h8.742V302.968z
				 M466.428,288.165h-8.742v-8.742h8.742V288.165z M466.428,271.872h-8.742v-8.742h8.742V271.872z M466.428,257.068h-8.742v-8.742
				h8.742V257.068z M466.428,240.17h-8.742v-8.742h8.742V240.17z M466.428,225.367h-8.742v-8.742h8.742V225.367z"/>
		</g>
		<g>
			<g>
				<g>
					
						<linearGradient id="SVGID_00000002378459411430399020000001665602465412611256_" gradientUnits="userSpaceOnUse" x1="54.1829" y1="279.6643" x2="54.1829" y2="340.8429">
						<stop  offset="0" style="stop-color:#5B7954"/>
						<stop  offset="0.5402" style="stop-color:#3A5D37"/>
						<stop  offset="1" style="stop-color:#1B421C"/>
					</linearGradient>
					<path style="fill:url(#SVGID_00000002378459411430399020000001665602465412611256_);" d="M24.976,279.667
						c4.597-3.245,7.842-5.139,11.629-0.811c3.515-3.786,8.924-4.598,13.521-3.517c1.623,0.542,1.893,1.623,4.868,1.352
						c2.434,0,4.597-1.352,6.49,0.812c-2.975,2.704-0.27,2.704,1.893,3.245c4.057,0.812,3.246-0.27,5.409,2.704
						c0.541,0.812-0.271,2.164,0.271,2.705c0.812,0.811,2.434,0,3.245,0.811c1.623,1.622,2.975,2.704,0.812,5.138
						c4.327-0.27,5.949,1.081,4.597,5.409c4.057,0.54,5.409,1.352,3.786,5.408c2.704,0.271,4.056,1.893,2.704,4.327
						c1.352-0.271,5.139,3.245,5.139,4.057c-0.541,3.245-6.22,1.893-9.466,2.163c-7.572,0.811-14.062,0-21.634-0.271
						c-12.981-0.541-26.502,0.812-39.213-1.081"/>
				</g>
				<g>
					<g>
						
							<linearGradient id="SVGID_00000069388333254372652570000008683186248610498224_" gradientUnits="userSpaceOnUse" x1="431.4685" y1="271.7202" x2="431.4685" y2="347.1271">
							<stop  offset="0" style="stop-color:#5B7954"/>
							<stop  offset="0.5402" style="stop-color:#3A5D37"/>
							<stop  offset="1" style="stop-color:#1B421C"/>
						</linearGradient>
						<path style="fill:url(#SVGID_00000069388333254372652570000008683186248610498224_);" d="M475.359,281.054
							c-4-16-14-14-24-17.334c-3.333-0.666-4-4.666-8-4.666c-4.666,0-4.666,4.666-8.666,5.333c-8,2-14.667-4.667-14.667,8.667
							c-6.667-1.334-16-4-14,6c-2.667,0.666-11.333,0-13.333,2c-4.667,4.666,2.666,8-0.667,12c-3.333,2.666-10-2-12,0
							c-2.667,2.666,0,9.333-0.667,12.666c0,1.334,2,0.667,2,2c-0.666,0.667-1.333,1.334-2,2c8,5.334,20.667,2,30,3.334
							c12,1.333,20.667,4.666,33.334,4c8.666,0,21.333,0,30-3.334c9.333-4,12-14,11.333-24.666"/>
					</g>
					<g>
						
							<linearGradient id="SVGID_00000092448304067226094980000005451816912949742246_" gradientUnits="userSpaceOnUse" x1="278.7377" y1="274.9218" x2="278.7377" y2="344.652">
							<stop  offset="0" style="stop-color:#5B7954"/>
							<stop  offset="0.5402" style="stop-color:#3A5D37"/>
							<stop  offset="1" style="stop-color:#1B421C"/>
						</linearGradient>
						<path style="fill:url(#SVGID_00000092448304067226094980000005451816912949742246_);" d="M325.136,311.293
							c-7.397-0.616-2.465-8.631-5.548-12.946c-3.699-4.314-10.479-3.082-14.179-4.932c-4.932-3.082-8.015-7.397-14.179-9.863
							c-3.699-1.85-9.247-7.398-14.18-6.781c-4.932,0.617-8.63,6.165-11.712,8.015c-1.233,0.615-5.549-1.233-7.397-0.617
							c-1.234,0.617-3.699,4.932-5.549,5.549c-4.315,2.466-10.48-1.85-9.248,7.398c-9.247-3.699-16.645,12.329-4.315,16.028
							c8.631,3.083,23.426-1.233,33.289-1.85c10.48,0,19.111,1.233,29.591,0.616c4.932,0,20.961-0.616,20.961,1.233"/>
					</g>
					<g>
						
							<linearGradient id="SVGID_00000160895084853303564180000007783384085585270440_" gradientUnits="userSpaceOnUse" x1="109.0868" y1="279.6651" x2="109.0868" y2="340.8413">
							<stop  offset="0" style="stop-color:#5B7954"/>
							<stop  offset="0.5402" style="stop-color:#3A5D37"/>
							<stop  offset="1" style="stop-color:#1B421C"/>
						</linearGradient>
						<path style="fill:url(#SVGID_00000160895084853303564180000007783384085585270440_);" d="M79.332,301.299
							c0-1.622,2.164-5.408,3.786-7.572c8.654-11.358,9.194-2.704,18.389-3.785c2.163-0.542,3.246-5.409,7.031-5.95
							c3.787,0,4.868,3.786,7.572,4.867c2.705,0.541,5.409-2.704,8.654-0.54c2.705,1.623,3.786,7.03,4.868,9.194
							c7.032-3.786,11.358,8.113,8.113,11.899c-2.704,3.245-17.849,2.704-22.716,2.704c-10.817,0-23.798-1.081-32.993,0"/>
					</g>
				</g>
			</g>
			
				<linearGradient id="SVGID_00000119810612149848984410000012918313962431071396_" gradientUnits="userSpaceOnUse" x1="142.6753" y1="278.4146" x2="142.6753" y2="311.7837">
				<stop  offset="0" style="stop-color:#5B7954"/>
				<stop  offset="0.5402" style="stop-color:#3A5D37"/>
				<stop  offset="1" style="stop-color:#1B421C"/>
			</linearGradient>
			<polygon style="fill:url(#SVGID_00000119810612149848984410000012918313962431071396_);" points="150.925,306.035 
				134.425,306.035 139.425,264.359 145.925,264.359 			"/>
			<g>
				<polygon style="fill:#BCA66D;" points="318.802,311.835 310.749,311.835 313.181,294.323 316.371,294.323 				"/>
				
					<linearGradient id="SVGID_00000067223970570977655070000009185027994937260205_" gradientUnits="userSpaceOnUse" x1="314.7759" y1="262.253" x2="314.7759" y2="289.1674">
					<stop  offset="0" style="stop-color:#82916B"/>
					<stop  offset="0.4006" style="stop-color:#617150"/>
					<stop  offset="1" style="stop-color:#293A23"/>
				</linearGradient>
				<polygon style="fill:url(#SVGID_00000067223970570977655070000009185027994937260205_);" points="324.651,286.267 
					319.255,276.224 321.613,276.224 316.143,264.268 313.409,264.268 307.939,276.224 310.296,276.224 304.901,286.267 
					308.415,286.267 304.901,296.142 324.651,296.142 321.137,286.267 				"/>
			</g>
			<g>
				<polygon style="fill:#BCA66D;" points="115.641,311.835 107.588,311.835 110.02,294.323 113.209,294.323 				"/>
				
					<linearGradient id="SVGID_00000074419437173198503880000004925902150540752052_" gradientUnits="userSpaceOnUse" x1="111.6148" y1="262.253" x2="111.6148" y2="289.1674">
					<stop  offset="0" style="stop-color:#82916B"/>
					<stop  offset="0.4006" style="stop-color:#617150"/>
					<stop  offset="1" style="stop-color:#293A23"/>
				</linearGradient>
				<polygon style="fill:url(#SVGID_00000074419437173198503880000004925902150540752052_);" points="121.49,286.267 
					116.094,276.224 118.452,276.224 112.982,264.268 110.248,264.268 104.778,276.224 107.135,276.224 101.74,286.267 
					105.253,286.267 101.74,296.142 121.49,296.142 117.976,286.267 				"/>
			</g>
			<g>
				<polygon style="fill:#BCA66D;" points="35.428,311.835 27.375,311.835 29.807,294.323 32.997,294.323 				"/>
				
					<linearGradient id="SVGID_00000041277443601049126400000013753890690321738129_" gradientUnits="userSpaceOnUse" x1="31.4019" y1="262.253" x2="31.4019" y2="289.1674">
					<stop  offset="0" style="stop-color:#82916B"/>
					<stop  offset="0.4006" style="stop-color:#617150"/>
					<stop  offset="1" style="stop-color:#293A23"/>
				</linearGradient>
				<polygon style="fill:url(#SVGID_00000041277443601049126400000013753890690321738129_);" points="41.277,286.267 
					35.881,276.224 38.239,276.224 32.769,264.268 30.035,264.268 24.565,276.224 26.922,276.224 21.527,286.267 25.041,286.267 
					21.527,296.142 41.277,296.142 37.763,286.267 				"/>
			</g>
			<g>
				<polygon style="fill:#BCA66D;" points="422.08,311.835 414.027,311.835 416.458,294.323 419.648,294.323 				"/>
				
					<linearGradient id="SVGID_00000128483640593638916450000000843675292980439997_" gradientUnits="userSpaceOnUse" x1="418.0533" y1="262.253" x2="418.0533" y2="289.1674">
					<stop  offset="0" style="stop-color:#82916B"/>
					<stop  offset="0.4006" style="stop-color:#617150"/>
					<stop  offset="1" style="stop-color:#293A23"/>
				</linearGradient>
				<polygon style="fill:url(#SVGID_00000128483640593638916450000000843675292980439997_);" points="427.928,286.267 
					422.533,276.224 424.89,276.224 419.42,264.268 416.686,264.268 411.216,276.224 413.574,276.224 408.178,286.267 
					411.692,286.267 408.178,296.142 427.928,296.142 424.415,286.267 				"/>
			</g>
			<g>
				<polygon style="fill:#BCA66D;" points="263.537,311.835 255.484,311.835 257.916,294.323 261.105,294.323 				"/>
				
					<linearGradient id="SVGID_00000131360274810295522420000017442609303622787464_" gradientUnits="userSpaceOnUse" x1="259.5103" y1="262.253" x2="259.5103" y2="289.1674">
					<stop  offset="0" style="stop-color:#82916B"/>
					<stop  offset="0.4006" style="stop-color:#617150"/>
					<stop  offset="1" style="stop-color:#293A23"/>
				</linearGradient>
				<polygon style="fill:url(#SVGID_00000131360274810295522420000017442609303622787464_);" points="269.385,286.267 
					263.99,276.224 266.347,276.224 260.878,264.268 258.143,264.268 252.673,276.224 255.031,276.224 249.635,286.267 
					253.149,286.267 249.635,296.142 269.385,296.142 265.872,286.267 				"/>
			</g>
		</g>
		<g>
			
				<linearGradient id="SVGID_00000049918873085487371680000013808775907547529645_" gradientUnits="userSpaceOnUse" x1="247.0267" y1="315.7215" x2="247.0267" y2="384.6018">
				<stop  offset="0" style="stop-color:#7F8279"/>
				<stop  offset="0.283" style="stop-color:#5F615A"/>
				<stop  offset="0.9034" style="stop-color:#0D0E0D"/>
				<stop  offset="1" style="stop-color:#000000"/>
			</linearGradient>
			
				<rect x="22.693" y="311.835" style="fill-rule:evenodd;clip-rule:evenodd;fill:url(#SVGID_00000049918873085487371680000013808775907547529645_);" width="448.667" height="49.774"/>
			
				<linearGradient id="SVGID_00000013163288026550690840000009593975446718839966_" gradientUnits="userSpaceOnUse" x1="247.0267" y1="349.3789" x2="247.0267" y2="407.6019">
				<stop  offset="0" style="stop-color:#7F8279"/>
				<stop  offset="0.283" style="stop-color:#5F615A"/>
				<stop  offset="0.9034" style="stop-color:#0D0E0D"/>
				<stop  offset="1" style="stop-color:#000000"/>
			</linearGradient>
			
				<rect x="22.693" y="346.093" style="fill-rule:evenodd;clip-rule:evenodd;fill:url(#SVGID_00000013163288026550690840000009593975446718839966_);" width="448.667" height="42.073"/>
			<rect x="22.693" y="346.982" style="fill:#E8E5D1;" width="448.667" height="1.37"/>
			<rect x="22.693" y="311.835" style="fill:#E8E5D1;" width="448.667" height="1.37"/>
			<rect x="22.693" y="389.055" style="fill:#E8E5D1;" width="448.667" height="1.37"/>
		</g>
		<path id="XMLID_37_" style="fill:#FFFFFF;" d="M64.719,213.029c0.077,0.005,0.154,0.011,0.232,0.017
			c-0.003,0.034-0.001,0.068-0.002,0.102C64.874,213.104,64.797,213.066,64.719,213.029z"/>
		<g>
			<g>
				<path style="fill:#FFFFFF;" d="M320.02,76.715c-1.335,1.335-2.66,2.672-3.941,4.058c-0.35,0.378,0.185,0.913,0.563,0.563
					c1.387-1.282,2.724-2.607,4.058-3.942C321.138,76.957,320.458,76.277,320.02,76.715L320.02,76.715z"/>
			</g>
		</g>
		<g>
			
				<linearGradient id="SVGID_00000173119347466052547750000001743232609411933068_" gradientUnits="userSpaceOnUse" x1="276.2622" y1="386.4799" x2="276.2622" y2="423.2656">
				<stop  offset="0" style="stop-color:#5B7954"/>
				<stop  offset="0.5402" style="stop-color:#3A5D37"/>
				<stop  offset="1" style="stop-color:#1B421C"/>
			</linearGradient>
			
				<rect x="73.255" y="390.412" style="fill:url(#SVGID_00000173119347466052547750000001743232609411933068_);" width="406.014" height="41.986"/>
			
				<linearGradient id="SVGID_00000088831579722736007620000008801605299206856881_" gradientUnits="userSpaceOnUse" x1="235.8997" y1="358.8659" x2="235.8997" y2="494.7568">
				<stop  offset="0" style="stop-color:#5B7954"/>
				<stop  offset="0.5402" style="stop-color:#3A5D37"/>
				<stop  offset="1" style="stop-color:#1B421C"/>
			</linearGradient>
			<path style="fill:url(#SVGID_00000088831579722736007620000008801605299206856881_);" d="M444.009,374.564
				c-0.165-1.283-1.138-2.246-2.51-1.911c-0.611,0.149-1.202,0.323-1.783,0.514c-0.454-2.745,0.788-4.128-2.648-3.637
				c-0.729-1.592-1.855-2.721-3.692-2.411c-2.221,0.374-3.96,2.118-5.354,3.776c-0.222,0.264-0.408,0.574-0.58,0.88
				c-0.721,0.185-1.483,0.381-2.292,0.589c-0.198-0.246-0.415-0.548-0.66-0.936c-0.849-1.348-1.203-2.98-2.06-4.35
				c-0.545-0.872-1.805-1.102-2.551-0.329c-1.316,1.364-2.199,3.005-3.163,4.625c-0.911,1.532-3.152,2.854-3.271,0.203
				c-0.039-0.885,0.067-1.795,0.097-2.68c0.042-1.225-1.298-1.785-2.279-1.309c-2.283,1.111-3.523,3.27-4.428,5.563
				c-0.507,1.286-0.959,2.591-1.442,3.885c-1.093,2.928-2.28,2.108-4.214,0.043c-1.124-1.202-3.163,0.04-2.722,1.584
				c0.302,1.06,1.578,5.284,1.439,7.548c-0.446,0.488-0.893,0.975-1.336,1.458c-1.486-0.007-3.033-0.24-4.484,0.123
				c-3.016,0.757-2.524,2.716-1.222,4.387c-2.002,1.128-4.289,2.134-6.362,1.146c-2.302-1.098-3.796-4.206-5.101-6.225
				c-0.76-1.176-2.447-0.936-2.886,0.377c-0.626,1.873-4.301,10.095-4.555,4.087c-0.043-1.021-0.984-1.824-2.013-1.533
				c-2.227,0.63-3.432,2.232-5.007,3.831c-1.244,1.263-2.824-6.309-3.246-7.071c-0.537-0.968-2.128-1.029-2.648,0
				c-0.946,1.874-1.247,3.854-1.792,5.867c-0.366,0.538-0.733,1.076-1.101,1.613c-0.283-0.348-0.722-0.669-1.103-0.774
				c-1.553-0.427-3.08,0.558-4.316,1.385c-2.396,1.603-3.236,0.422-5.601-1.291c-1.043-0.757-2.149,0.305-2.277,1.307
				c-0.195,1.53-0.108,3.115-0.159,4.656c-0.057,1.726,0.238,6.734-1.983,3.559c-0.748-1.069-2.461-1.005-2.844,0.371
				c-0.491,1.767-0.68,3.502-0.753,5.288c-1.235-0.168-2.455-0.413-3.692-0.611c-0.883-0.142-1.894,0.375-1.844,1.404
				c0.127,2.668,0.25,5.329,0.319,8c0.017,0.625,0.428,0.967,0.895,1.059c-1.167,0.29-2.384-0.038-3.758,0.42c-2.333,1-3.667,2-6,3
				c-0.847,0.169-2.467,0.252-4.075,0.249c-0.423-0.072-0.941-0.177-1.592-0.393c-1.487-0.425-3.144-0.648-4.57-0.98
				c-0.699-0.604-1.011-1.327-2.43-2.543c-0.344-0.267-0.701-0.567-1.067-0.887c0.131-0.849,0.567-1.91,1.401-3.258
				c-1.042,0.474-2.164,1.052-3.269,1.55c-1.964-1.852-4.059-3.908-5.906-5.099c0.265-1.152,0.453-2.281,0.175-3.118
				c-0.529,0.794-1.02,1.613-1.513,2.405c-3.744-1.544-1.87-0.244-4.821,0.739c-0.666,0.334,0,3-1.333,3.334
				c-1.232,0.308-1.62-1.366-2.725-2.149c-0.095-2.558-0.275-5.2-0.275-7.662c-1.251,2.859-2.41,3.988-3.982,4.528
				c-1.786-1.711-3.454-3.523-5.803-4.34c-0.115-0.619-0.283-1.237-0.548-1.855c-0.986,0.268-1.752,0.832-2.414,1.53
				c-2.541,0.308-4.321,1.843-6.334,3.065c-1.143-2.463-1.429-0.542-4.604,1.53c-0.106,0.004-0.206,0.018-0.315,0.018
				c-2.089,0-4.18-1.33-6.508-0.892c0.034-0.279,0.091-0.584,0.175-0.919c-2.128,0.798-5.949,6.046-8.594,9.491
				c-1.409-0.058-2.844-0.428-4.294-0.448c-0.803-1.287-1.486-2.638-2.779-3.377c-0.302,1.357-0.398,2.784-0.475,4.216
				c-0.508,0.311-1.016,0.715-1.525,1.263c-0.583,0.68-1.051,1.273-1.46,1.809c-0.646-0.657-1.261-1.34-1.874-1.953
				c-0.699,2.097-2.043,4.718-3.417,6.296c-0.703,0.183-1.535,0.35-2.583,0.515c-0.241,0.04-0.471,0.091-0.694,0.147
				c-0.48-0.747-0.831-2.105-0.972-4.291c-1.772,1.518-2.968,3.609-4.899,4.53c-1.137-0.863-1.323-2.126-2.101-2.386
				c-0.368-0.184-0.732-0.303-1.093-0.386c-0.883-1.932-2.035-3.681-2.907-5.425c0.344,2.583-0.296,4.449-1.633,5.793
				c-1.387,0.258-2.817,0.39-4.367-0.315c-0.025-0.011-0.044-0.028-0.068-0.04c0.382-2.401,0.068-4.997,0.068-7.105
				c-1.199,1.199-2.403,2.049-3.692,2.695c-0.194-0.215-0.402-0.407-0.641-0.551c-1.72-1.146-3.439-1.064-5.16-1.654
				c-0.031-2.158,0.105-4.449-0.507-6.49c-0.98,0.28-2.194,1.91-3.347,3.289c-0.504-0.651-1.003-1.218-1.653-1.477
				c-3.334-2-2.334-0.334-5.334-0.334c-0.787,0.079-1.233,0.213-1.513,0.342c0.452-1.513,0.763-3.072,0.513-4.819
				c-1.896,0.211-3.66,1.221-5.459,2.272c-0.746-0.678-1.467-1.418-2.273-2.086c-0.018-1.716-0.415-3.504-0.602-5.187
				c-1.08,0.811-2.593,1.62-3.839,2.431c-0.266-0.154-0.534-0.308-0.804-0.459c-0.084-3.553-2.023-6.624-2.023-9.972
				c-0.835,2.507-4.462,6.629-7.578,7.338c-0.018-0.103-0.047-0.204-0.095-0.304c-0.654-1.357-3.295-0.104-4.197-1.206
				c-1.547-1.891,1.313-4.668,1.134-6.812c-2.656,0.671-4.614,2.689-6.725,4.475c-0.712-0.67-1.361-1.306-1.984-1.883
				c0.094-1.989,0.392-4.156-0.289-4.516c-1.108-0.584-2.171,0.819-3.081,2.188c-1.532-0.579-3.316-0.538-5.853,0.53
				c-0.335,0.144-0.657,0.289-0.973,0.435c-0.521-1.111-0.854-2.218-3.028-0.913c-0.742,0.593-1.086,1.781-1.241,3.064
				c-2.185,1.102-4.367,2.032-7.425,2.415c-1.995,0.249-3.616,0.778-5.091,1.447c-0.976-2.654-1.174-6.879-1.909-8.593
				c-1.667,3.667-4,7.667-5.333,11.334c-5.333-1-6.333-8.667-9.333-0.667c-3,7-0.333,4.333-7.333,4
				c-1.681,0-2.568,1.322-3.578,1.634c-0.957-0.512-1.769-1.242-2.453-2.194c-0.03-1.609,0.781-4.106,1.031-5.106
				c0.992-4.627,2.628-4.667-3.52-5.969c0.013-0.074,0.027-0.149,0.041-0.225c2.588-2.617,4.876-5.528,7.479-7.807
				c-1.334-2-4-1.333-6.334-1c-0.333-2.666,1-5,3-7c-3.259-2.37-7.57-0.265-11.063,1.169c-0.238-0.599-0.391-1.145-0.936-1.69
				c-0.465-0.531-0.876-1.008-1.267-1.44c0.851-3.239,0.56-6.509,0.266-10.038c-0.979,2.939-3.877,5.87-6.815,6.304
				c-0.059-0.014-0.122-0.027-0.183-0.041c0.013-2.303,0.661-4.287,0.331-6.596c-1.085,0.543-5.702,3.954-8.102,4.847
				c-0.592-0.131-1.201-0.264-1.827-0.399c-1.295-2.02,1.929-7.348,1.929-9.447c-5.269,0.586-5.913,5.282-8.926,7.999
				c-2.357-0.462-4.792-0.908-7.212-1.306c-0.262-1.469-0.282-3.217-0.528-4.693c-11.667,5.333-3-2.667-7-8.333
				c-4-5-3.333,9.666-7.667,10.666c-0.333-3.333-2.333-5.666-2.333-9c-1,1-2.667,2-3.333,3.334c-0.667-1.334-2-2.334-2.667-3.667
				c-1.333,1-2,2.333-2,4l-9,39.667l10.746,33.333l11.274,1.916c5.51,10.645,12.901,22.113,12.647,22.895
				c-9.667,29.758,323.304-0.296,322.318,0.019c-0.985,0.314,59.349-26.687,59.349-26.687v-50.999
				c-0.105-0.089-0.202-0.177-0.303-0.266C444.051,377.87,444.228,376.267,444.009,374.564z M336.074,417.967
				c0.047-0.122,0.086-0.25,0.09-0.403c0.003-0.103,0.008-0.207,0.011-0.311l0.586-0.158c-0.096,0.229-0.224,0.437-0.4,0.613
				C336.264,417.804,336.169,417.888,336.074,417.967z"/>
		</g>
		<g>
			<g>
				
					<linearGradient id="SVGID_00000167362593684248336550000015873564552769917094_" gradientUnits="userSpaceOnUse" x1="535.9776" y1="279.7202" x2="536.0742" y2="279.7202">
					<stop  offset="0" style="stop-color:#5B7954"/>
					<stop  offset="0.5402" style="stop-color:#3A5D37"/>
					<stop  offset="1" style="stop-color:#1B421C"/>
				</linearGradient>
				<path style="fill:url(#SVGID_00000167362593684248336550000015873564552769917094_);" d="M536.026,279.77
					c0.064,0,0.065-0.1,0-0.1C535.962,279.67,535.961,279.77,536.026,279.77L536.026,279.77z"/>
			</g>
		</g>
		<g>
			<g>
				
					<linearGradient id="SVGID_00000148630273696952887900000011207751172892907922_" gradientUnits="userSpaceOnUse" x1="86.0948" y1="247.114" x2="40.7612" y2="162.4469">
					<stop  offset="0" style="stop-color:#5B7954"/>
					<stop  offset="0.5402" style="stop-color:#3A5D37"/>
					<stop  offset="1" style="stop-color:#1B421C"/>
				</linearGradient>
				<path style="fill:url(#SVGID_00000148630273696952887900000011207751172892907922_);" d="M66.026,165.722
					c4.334-2.333,13-4.667,17,0c1.334,1.333-0.333,3.333,1.667,4.333c1.333,0.667,4.667-1.667,6.333-1c4,1.333,4.334,6.667,9.334,6
					c1,3.667,9.666,4.333,9.333,9.667c-0.333,2.333-3.667,2-4,3.667c-1,3.333,0.667,2.667,2,5.667c0.667,1.667,1.667,3.333,1,5.333
					c-1.333,3.333-2,1-4,2.667c-2.333,1.667-3.333-0.667-4.333,3c-0.334,1.667,1,4.333,1.333,6
					c0.333,2.667,1.333,8.667,0.333,10.667c-2.666,3.333-8,0.333-11,1.667c-3.666,2-4.333,7.667-6.666,11
					c-3.334,5-4.334,3.667-10.334,3.333c1,8.333-5.666,3.667-9.666,1.333c-5-2.667-9-3.333-12.333,2.667
					c-3.333,6.333,0.333,8.667-8.667,6.667c-3.333-1-4-0.333-6.333-3c-2-2.333-2-6.333-4.667-8.667
					c-4.667-4-7.334,1.333-11.334-3.667c-2-2.333-1.667-4.667-2.333-7.333c-0.667-3-3-5-3.667-7.333c-2-6.667,6-11,7.667-16.667
					c2.333-8-3.667-13,5.667-18c1.667-0.667,4.667-1,6-2.333s1.333-4,2.333-5.667c4-5.333,9-3.667,14.333-5.333
					c4-1,6-4.667,10.333-6c1-0.333,3,0.333,4,0s2-0.333,3.333-0.667"/>
			</g>
			<g>
				
					<linearGradient id="SVGID_00000065773827328934227450000011256832819081873284_" gradientUnits="userSpaceOnUse" x1="474.1672" y1="207.6658" x2="423.4195" y2="112.887">
					<stop  offset="0" style="stop-color:#5B7954"/>
					<stop  offset="0.5402" style="stop-color:#3A5D37"/>
					<stop  offset="1" style="stop-color:#1B421C"/>
				</linearGradient>
				<path style="fill:url(#SVGID_00000065773827328934227450000011256832819081873284_);" d="M424.86,118.055c-3.5,1.5-5.5-1-8.5,0
					c-5.5,1-5.5,0.5-6.5,6c-1,5.5,1.5,5.5,3,9.5c1.5,3.5,5,3,2,8c-2.5,4.5-7.5,1.5-10,4.5c-5,6,6,13,11.5,10.5c1.5,5-5.5,11-2,15
					c4,5,10.5-2,9.5,7c-0.5,6-9,8-0.5,13.5c5.5,3.5,10.5-1.5,15-3.5c1.5,4,7.5,14.5,9.5,16c7.5,4.5,16.5-4.5,21.5-8.5
					c2-2,5.5-6.5,9-6.5c4.5,0.5,5,5,8.5,7c11.5,5.5,12-9.5,11-17.5c-1.5-12.5-8-25-14-35.5c-5-8-14.5-11-18-19
					c-3.5-9.5-1-11.5-12.5-11.5c-2.5,0-6.5-0.5-8.5-0.5c-3.5,0.5-6.5,3-9.5,3.5c-3.5,1-8.5-1-10.5,1"/>
			</g>
		</g>
		<g>
			<path style="fill:#FFFFFF;" d="M499.999,0.038L0,0.001l0.026,499.722h500L499.999,0.038z M29.401,316.652
				c1.064-4.02,1.959-8.064,2.694-12.145c0.312-3.671,0.461-7.352,0.373-11.032c-0.515-1.934-1.104-3.848-1.694-5.784
				c-1.853-6.072-2.67-12.04-3.307-18.444c-0.609-6.139-0.174-12.421,1.057-18.525c15.386,13.086,22.91,31.27,28.952,49.591
				l-0.83,41.632c-1.653-0.273-3.272-0.745-5.097-0.047c-1.795,0.685-3.55,2.853-2.949,4.593c0.004,0.012,0.011,0.021,0.016,0.033
				c-3.872,1.54-7.333,3.905-10.073,7.031c0.128-1.433,0.225-2.86,0.623-4.27c0.799,0.257,1.7,0.158,2.464-0.466
				c0.239-0.194,0.496-0.482,0.745-0.829c2.03-1.528,1.759-4.71,0.829-7.033c-0.224-0.561-1.033-0.409-1.217,0.089
				c-0.514,1.397-2.839,1.696-3.837,2.781c-0.732,0.796-1.159,1.802-1.055,2.897c0.083,0.878,0.556,1.624,1.204,2.11
				c-0.071,0.163-0.147,0.323-0.208,0.499c-0.602,1.737-0.774,3.685-0.6,5.516c-0.381,0.5-0.751,1.01-1.097,1.542
				c-1.121,1.725-2.243,3.95-3.06,6.336c-0.054-0.199-0.113-0.399-0.182-0.604c-0.522-1.549-0.943-3.004-1.191-4.47
				c1.202-0.324,2.042-1.554,2.254-2.787c0.357-2.077-0.365-3.986-1.355-5.764c0.006-0.013,0.01-0.025,0.016-0.037
				c0.354-0.772-0.792-1.467-1.367-0.903c-1.702,1.671-4.788,8.553-0.812,9.49c0.029,0.397,0.07,0.794,0.136,1.193
				c0.482,2.917,1.738,5.101,1.366,8.172c-0.013,0.101,0.01,0.188,0.047,0.266c-0.03,0.231-0.051,0.463-0.072,0.693
				c-4.69-7.591-7.608-15.678-7.826-25.652C24.145,333.018,27.109,325.312,29.401,316.652z M50.387,398.461
				c0-2.251,0.21-4.46,0.605-6.611c-2.613-2.522-4.881-5.451-6.664-8.789c-0.018-0.034-0.04-0.065-0.058-0.1
				c-1.709-1.669-3.458-3.298-4.97-5.147c-1.871-2.287-3.602-4.565-5.185-6.872c-0.107-1.425-0.176-2.848,0.019-4.316
				c0.006-0.048,0.016-0.094,0.022-0.143c0.623-0.948,1.206-1.954,2.037-2.699c0.139-0.125,0.285-0.235,0.434-0.336
				c0.081,0.751,0.475,1.631,1.692,2.27c1.149,0.604,2.729,0.348,3.876-0.191c1.912-0.898,3.637-1.866,4.689-3.699
				c0.59-1.028,0.462-1.67-0.334-1.511c-2.167,0.435-4.104-1.092-6.27-0.921c-1.61,0.126-2.825,1.094-3.445,2.551
				c-0.02,0.046-0.099,0.246-0.158,0.536c-0.311,0.152-0.604,0.328-0.867,0.536c-0.447,0.354-0.858,0.787-1.241,1.255
				c0.427-1.804,1.063-3.554,1.873-5.222c1.449-1.597,3.068-2.909,4.974-3.877c0.197,2.048,3.212,2.777,5.309,2.581
				c2.213-0.206,5.34-1.706,6.087-3.789c0.141-0.123,0.19-0.342,0.01-0.41c-2.208-0.844-3.958-2.552-6.691-2.415
				c-1.924,0.096-4.221,1.469-4.655,3.233c-1.137,0.329-2.226,0.833-3.204,1.495c2.642-3.908,6.32-6.941,10.585-8.896
				c0.945,1.304,3.431,1.067,5.029,0.375c0.9-0.39,1.9-1.109,2.69-1.976l-1.419,71.2C52.129,411.175,50.387,404.992,50.387,398.461z
				 M57.811,283.471c-2.546-4.932-5.383-9.595-7.451-13.317c-5.16-9.851-11.641-17.94-20.68-24.271
				c0.428-1.553,0.887-3.094,1.412-4.604c4.397-12.65,7.881-25.645,12.384-38.259c0.429,0.752,0.91,1.483,1.382,2.206
				c5.674,8.686,10.36,18.014,13.958,27.745L57.811,283.471z M59.155,218.798c-2.274-4.975-4.993-9.747-8.119-14.235
				c-1.796-2.579-3.74-5.124-5.19-7.891c0.774-1.963,1.579-3.848,2.441-5.656c3.697,2.793,5.887,0.998,9.088-6.116
				c0.342,1.025,1.269,2.46,2.499,3.744L59.155,218.798z M130.517,434.061c0.017-0.116,0.03-0.234,0.055-0.347
				c0.119,0.103,0.256,0.197,0.403,0.283C130.825,434.019,130.672,434.042,130.517,434.061z M159.723,445.213
				c-0.17-1.156,0.215-2.618,0.743-4.179C160.313,442.454,160.005,443.836,159.723,445.213z M421.79,416.819
				c-0.412-1.45-0.933-2.88-1.425-4.132c1.144,1.722,2.191,3.496,2.995,4.3C422.836,416.812,422.313,416.779,421.79,416.819z
				 M442.224,173.905c-0.267,0.953-0.718,1.821-1.285,2.621l-2.36-0.206l-0.066,2.769c-0.436,0.368-0.886,0.723-1.342,1.055
				c0.375,0.529,0.81,1.009,1.282,1.447l-0.855,35.798c-4.191-12.173-9.565-29.866-11.686-40.735
				c-1.247-6.392-2.552-7.875-3.548-1.908c0,0,9.435,39.088,14.678,59.106c0.053,0.029,0.108,0.047,0.161,0.071l-0.358,15.042
				c-5.67-6.79-14.358-11.023-18.482-18.85c-2.482-4.71-2.99-10.174-3.453-15.477l-0.385,0.233
				c-1.473,9.004,1.007,18.584,6.662,25.744c2.411,3.052,5.364,5.681,7.467,8.954c1.869,2.911,3.02,6.261,5.102,9.023
				c0.521,0.69,1.156,1.377,2.001,1.561c0.272,0.06,0.548,0.046,0.821,0.003l-2.723,138.526c-1.279,0.108-2.599,0.443-3.827,0.97
				c2,3.333,3.333,7.333,2,10.666c0.62,0.395,1.138,0.815,1.574,1.248l-0.145,7.41c-1.737,1.282-4.474,1.621-7.429,0.009
				c-3.239-1.943,2.33-13.955-7.139-9.738c-1.695-3.261-4.31-5.585-8.045-6.469c-0.594-0.142-1.041,0.769-0.434,1.027
				c4.477,1.913,6.381,5.831,7.458,10.35c0.241,1.013,0.346,2.19,0.452,3.401c-0.32,0.055-0.64,0.096-0.96,0.096
				c0.382,0.382,0.744,0.783,1.082,1.196c0.211,2.022,0.566,4.005,1.715,5.342c0.132,0.153,0.284,0.243,0.441,0.301
				c-0.208,1.447-1.163,2.79-3.238,3.827c6.667,6-2,10.667-7.333,7.334c0.666-0.667,1.333-2,2.666-3.334c-8.666-4.666,2-6,0.667-10
				s-7.333-5.333-9.333-8c0,4-0.667,8-4,10.667c-2-2-8-4.667-10.667-1.333c-2,2.666,3.333,7.333,4.667,9.333
				c1.675,2.79,3.813,2.322,5.249,4.831c-0.326-0.128-0.65-0.253-0.97-0.37c-4.655-1.71-14.6-6.347-15.193-11.961
				c-0.078-0.735-1.211-0.767-1.172,0c0.239,4.703,4.495,7.967,7.939,10.59c2.24,1.705,4.648,3.112,7.161,4.37
				c0.857,0.429,1.71,0.855,2.554,1.303c-0.236,0.884-0.535,1.924-0.81,2.978c-1.035-1.923-2.537-3.646-4.003-4.828
				c-0.484-0.391-1.373,0.134-0.938,0.725c1.535,2.086,3.755,5.449,3.52,8.362c-3.193-0.002-6.888-0.042-10.005-0.666
				c2.667-4.666-0.667-8-6-8c6.667,2,5.333,6.667-0.667,8.667c1.339,0.67,2.602,1.714,3.441,2.88
				c-0.166-0.092-0.33-0.185-0.493-0.277c-2.718-1.531-5.527-4.298-7.073-7.017c-0.536-0.943-1.826-0.116-1.416,0.828
				c1.235,2.85,3.054,5.411,5.308,7.542c0.891,0.842,2.725,2.255,4.48,2.785c-0.432,1.049-1.533,1.978-3.58,2.592
				c-4,1.334-7.333-4.666-12-5.333c-0.014,0.055-0.027,0.118-0.041,0.174c-0.345-2.694,0.06-5.619,0.889-8.108
				c0.312-0.938-1.185-1.583-1.606-0.677c-1.748,3.755-2.349,7.875-1.337,11.936c0.186,0.747,0.603,1.682,1.171,2.608
				c-0.008,0.182-0.003,0.357-0.006,0.535c-2.18,0.089-4.36,0.167-6.542,0.234c-0.044-0.559-0.008-1.225,0.14-2.037
				c-3.334,1.333-6.667,1.333-10,1.333c2.449-3.675,1.523-3.98,0.84-6.589c2.504-2.727,3.349-6.578,3.141-10.244
				c-0.036-0.635-0.882-0.601-0.961,0c-0.646,4.895-3.121,8.559-7.38,11.008c-1.023,0.589-2.146,1.066-3.27,1.553
				c-1.977-0.898-4.316-2.136-5.704-3.061c1.225-1.225,2.702-2.697,4.428-3.963c-1.045,0.997-2.148,1.927-3.184,2.978
				c-0.424,0.43,0.125,1.082,0.636,0.912c2.26-0.753,4.157-2.47,5.692-4.598c0.08-0.032,0.156-0.08,0.217-0.162
				c1.832-2.493,4.242-3.224,6.592-5.02c0.321-0.245,0.623-0.506,0.916-0.776c3.539,2.04,6.004-5.088,5.907-7.472
				c-0.033-0.805-1.343-1.083-1.614-0.277c-0.004,0.013-0.01,0.024-0.014,0.038c-1.939,0.616-3.773,1.513-4.936,3.272
				c-0.689,1.044-0.92,2.516-0.266,3.575c-1.185,0.898-2.488,1.67-3.929,2.441c-0.19,0.102-0.37,0.207-0.546,0.315
				c1.039-2.298,1.745-4.689,2.109-6.713c0.112-0.625,0.191-1.249,0.256-1.875c1.381-1.216,2.59-2.752,3.341-4.43
				c0.075-0.17,0.13-0.339,0.19-0.507c0.805,0.089,1.66-0.13,2.322-0.713c0.824-0.728,1.203-1.752,1.215-2.834
				c0.016-1.474-1.475-3.283-0.892-4.653c0.208-0.489-0.278-1.153-0.825-0.898c-2.27,1.056-4.645,3.189-4.213,5.693
				c-0.057,0.423-0.066,0.809-0.025,1.113c0.129,0.978,0.719,1.667,1.477,2.027c-0.675,1.299-1.582,2.406-2.47,3.538
				c0.143-4.154-0.759-8.248-2.524-12.022c0.011-0.005,0.022-0.008,0.033-0.013c1.629-0.857,1.835-3.639,0.996-5.367
				c-1.064-2.2-3.154-2.839-4.764-4.208c-0.131-0.11-0.281,0.021-0.317,0.184c-1.311,1.479-1.146,4.572-0.356,6.397
				c0.689,1.599,2.339,3.473,3.921,3.17c1.77,4.345,2.372,9.074,1.622,13.731c-0.26-1.152-0.708-2.265-1.311-3.283
				c0.893-1.583,0.159-4.157-1.177-5.544c-1.898-1.972-4.344-1.926-6.531-2.823c-0.178-0.073-0.291,0.12-0.273,0.306
				c-0.882,2.029,0.369,5.264,1.841,6.93c1.393,1.579,4.09,3.112,5.636,1.755c0.727,2.01,1.008,4.075,0.97,6.232
				c-0.552,1.77-1.288,3.48-2.212,5.087c0.042-0.603,0.039-1.199-0.045-1.764c-0.049-0.332-0.142-0.661-0.264-0.984
				c0.156-0.252,0.234-0.452,0.252-0.499c0.547-1.486,0.324-3.023-0.764-4.218c-1.067-1.174-2.662-1.609-3.945-2.458
				c-0.369-0.418-0.785-0.804-1.244-1.153c-0.003-0.004-0.007-0.008-0.01-0.012c-0.142-0.199-0.289-0.293-0.434-0.31
				c-0.459-0.308-0.951-0.584-1.483-0.812c0,0.667,0.667,2,0,2.667c-2.999-0.5-4.687,0.78-6.011,2.682
				c0.099-1.248,0.126-2.48-0.257-3.504c-0.137-0.363-0.504-0.537-0.861-0.351c-1.978,1.035-2.811,5.792-2.303,9.706
				c-1.099,1.573-2.483,2.897-4.568,3.467c-0.017-0.03-0.031-0.064-0.048-0.095c1.41-2.866,2.219-6.165,2.723-9.265
				c0.678-4.166-1.136-6.65-2.076-10.473c-0.165-0.674-1.265-0.541-1.22,0.165c0.214,3.385,1.522,6.155,1.021,9.681
				c-0.303,2.131-1.18,4.094-1.953,6.075c-1.378-4.601-2.228-10.22-5.779-12.756c0.667,2.667,0,5.333,0.667,8
				c-2-0.667-4.667,0.667-6.667,0c0.667,4.667-4,6.667-8,7.333c2.667,2.667,5.333,5.334,7.333,8
				c-1.15,0.575-2.301,1.148-3.451,1.296c-0.959-0.602-1.839-1.334-2.66-2.11c-1.716-1.623-4.232-4.721-4.438-7.15
				c-0.046-0.545-0.81-0.862-1.105-0.299c-1.209,2.311,1.864,6.508,3.084,8.353c1.017,1.536,3.074,3.545,5.337,4.792
				c-1.527,1.868-3.983,2.982-6.679,3.2c-0.46,0.009-0.92,0.022-1.38,0.03c-0.457-0.015-0.915-0.047-1.375-0.112
				c-2-2.666,0-2.666-4.667-4.666c2-4.667,1.333-6.667-4-6c0.482,0.965,0.664,1.898,0.629,2.77
				c-0.309-0.821-0.746-1.581-1.369-2.247c-0.234-3.065-1.183-5.989-3.229-8.387c-0.482-0.566-1.499,0.032-1.254,0.729
				c1.103,3.125,1.912,6.01,1.814,9.363c-0.056,1.912-0.499,3.76-0.969,5.601c-2.073,0.13-4.175-1.113-4.955-4.496
				c-2,0.667-6,0-7.334,0.667c0-0.667,1.334-2,1.334-2.667c-0.667-0.667-2.667-2-3.334-2.667c2-3.333,1.334-7.333-2-10
				c-2,2.667-2.666,6-1.333,10c-0.667,0-2.667,0-4,0c2.667,4.667,2,9.334-3.333,10c0-1.309-0.004-3.258-0.636-4.59
				c-0.365,0.174-2.031,0.59-2.031,0.59c0,0.667,1.333,2.667,1.333,3.334c-3.415,0.568-6.819,2.602-7.33,6.087
				c-0.156,0.026-0.312,0.051-0.468,0.077c-0.083-0.602-0.175-1.195-0.268-1.759c-0.664-4.046-3.909-6.553-6.226-9.624
				c-0.333-0.441-0.997-0.075-0.749,0.438c1.268,2.615,2.965,4.957,3.781,7.726c-0.012,0.06-0.021,0.12-0.034,0.18
				c-0.658-3.985-4.318,1.729-7.572,5.216c-2.079,0.462-4.149,0.953-6.211,1.478c0.091-1.887,0.434-3.853,1.744-5.818
				c-3.333,1.334-6.667,1.334-10,2c2-5.333,5.333-10.666,4-16.666c0,1.333-2.667,3.333-3.333,4.666c-2.667,0.667-5.333,1.334-8,0
				c4-6.666-2.667-7.333-6-2c1.333,0.667,2,2,3.333,2.667c-2,0.667-4,0.667-6,0c0.667-1.333,0-4,0.667-5.333
				c-1.333-0.667-3.333-0.667-4.667-0.667c0,0.667,2,0,1.333,1.333c-0.667,1.334-2,2-2,3.334c-2.27-1.514-3.251-3.673-3.675-6.11
				c0.392-1.736,1.033-3.454,2.13-5.225c1.887-3.043,4.404-5.12,7.323-7.023c0.333-0.217,0.38-0.745,0-0.951
				c-3.294-1.787-6.779,3.575-8.398,5.751c-0.487,0.654-0.947,1.348-1.379,2.066c0-0.169-0.001-0.338-0.001-0.508
				c-1.333,0.666-4.667,2-6.667,3.333c0.403,2.012-0.658,3.78-2.438,5.307c-0.262-2.221-0.157-4.521-0.064-6.696
				c0.286-6.753,0.806-13.804,4.034-19.898c0.255-0.482-0.433-0.882-0.729-0.426c-4.342,6.712-5.903,13.746-6.746,21.606
				c-0.033,0.305-0.064,0.64-0.094,0.994c-2.373-5.297-6.592-12.305-12.57-13.268c-0.196-0.031-0.405,0.213-0.216,0.372
				c4.921,4.163,8.568,9.451,10.224,15.683c0.739,2.78,1.271,5.933,2.116,8.878c-0.502-0.132-1.009-0.297-1.516-0.551
				c-7.333,10.667-9.333-4.667-10-5.333c-8.313-5.116-2.528,5.707-10.866,5.424c3.111-6.987,3.717-14.837,1.764-22.246
				c-0.164-0.624-1.223-0.513-1.151,0.156c0.597,5.52-0.093,10.42-1.388,15.373c-0.445,0.008-0.854-0.004-1.225-0.035
				c0.96-3.212,0.538-7.523,0.11-10.064c-0.874-5.188-2.98-10.194-7.805-12.789c-0.204-0.11-0.44,0.166-0.255,0.331
				c3.203,2.859,4.48,7.112,5.081,11.273c-0.272,0.018-0.559,0.037-0.853,0.057c0.013-0.132,0.021-0.263,0.036-0.393h-7.908
				c-0.671-1.686-1.613-3.232-2.207-4.42c-4.49,3.592-8.171,4.747-11.048,0.603c1.479-2.003,3.306-3.628,5.468-4.884
				c0.877-0.51,0.24-1.648-0.641-1.521c-2.716,0.393-4.859,2.381-6.537,4.427c-0.065,0.079-0.145,0.175-0.218,0.264
				c0.599-1.656,0.97-3.283,0.554-5.033c-0.274-1.153-0.807-1.533-1.278-0.872c-0.781,1.097-1.997,1.607-3.159,2.199
				c-0.166-0.127-0.333-0.252-0.505-0.364c-0.563-0.367-1.259,0.515-0.724,0.939c0.036,0.028,0.064,0.06,0.099,0.088
				c-0.326,0.222-0.639,0.463-0.911,0.762c-1.087,1.194-1.31,2.731-0.763,4.218c0.017,0.047,0.096,0.247,0.252,0.499
				c-0.122,0.323-0.215,0.652-0.264,0.984c-0.01,0.065-0.009,0.136-0.016,0.202c-0.258,0.029-0.525,0.061-0.8,0.095
				c-0.57-1.168-1.053-2.378-1.44-3.62c-0.038-2.156,0.243-4.222,0.969-6.231c1.546,1.357,4.243-0.176,5.636-1.755
				c1.472-1.666,2.723-4.9,1.84-6.93c0.018-0.186-0.095-0.379-0.273-0.306c-2.187,0.897-4.632,0.852-6.53,2.823
				c-1.337,1.387-2.07,3.961-1.177,5.544c-0.604,1.019-1.052,2.131-1.311,3.283c-0.751-4.657-0.148-9.387,1.622-13.731
				c1.582,0.303,3.231-1.571,3.921-3.17c0.788-1.824,0.955-4.918-0.357-6.396c-0.036-0.163-0.186-0.295-0.317-0.185
				c-1.609,1.369-3.699,2.008-4.765,4.208c-0.838,1.728-0.632,4.511,0.996,5.367c0.011,0.005,0.023,0.008,0.034,0.013
				c-1.767,3.774-2.669,7.868-2.525,12.022c-0.887-1.132-1.795-2.239-2.47-3.538c0.758-0.36,1.347-1.049,1.477-2.027
				c0.041-0.305,0.031-0.69-0.025-1.113c0.433-2.504-1.943-4.638-4.212-5.693c-0.547-0.255-1.033,0.409-0.826,0.898
				c0.582,1.37-0.907,3.18-0.891,4.653c0.012,1.082,0.39,2.106,1.215,2.834c0.661,0.583,1.518,0.802,2.322,0.713
				c0.06,0.168,0.114,0.337,0.19,0.507c0.752,1.678,1.96,3.214,3.34,4.43c0.064,0.626,0.144,1.25,0.256,1.875
				c0.314,1.745,0.898,3.762,1.714,5.757c-0.3,0.05-0.599,0.1-0.922,0.164c0-2-1-3-2-5c-0.278,0.278-0.578,0.494-0.893,0.673
				c-0.111-0.433-0.29-0.85-0.531-1.213c-1.162-1.759-2.996-2.655-4.935-3.272c-0.005-0.014-0.01-0.025-0.014-0.038
				c-0.271-0.806-1.581-0.527-1.615,0.277c-0.051,1.259,0.617,3.832,1.775,5.688c-0.591,0.208-1.189,0.484-1.789,0.884c0-3-2-7-1-10
				c-2,2-5,4-6,6c-3-5-6-7-11-10c-1.875,10.312-8.144,4.806-11.392-0.866c-1.601,4.478-1.538,2.29-0.608,7.866c-6,4-9,2-10-5
				c-0.346,0.23-0.676,0.504-0.994,0.801c2.056-5.826,5.802-10.974,11.337-13.88c0.678-0.356,0.207-1.496-0.524-1.242
				c-5.876,2.042-9.406,6.896-11.905,12.393c-0.917,2.017-1.993,4.749-2.745,7.593c0.369-3.677,0.41-7.467,1.258-11.055
				c1.675-7.086,5.324-12.562,11.172-16.82c0.555-0.404,0.09-1.182-0.532-0.91c-5.715,2.488-9.063,7.945-11.27,13.542
				c-0.374,0.948-0.743,1.997-1.093,3.105l-2.152-160.232c7.012-9.618,14.024-19.234,21.036-28.852
				c0.121-0.165,0.247-0.355,0.212-0.556c-0.095-0.546-0.938-0.275-1.333,0.115c-6.691,6.6-13.381,13.2-20.072,19.799l-0.459-27.87
				c1.694-0.302,3.248-1.35,4.673-2.382c7.267-5.265,14.367-10.76,21.287-16.474c2.72-2.246,5.446-4.564,7.434-7.477
				c2.466-3.615,3.65-7.928,4.794-12.152c1.034-3.818,2.067-7.635,3.102-11.453l-0.301-2.369
				c-3.509,7.393-7.019,14.786-10.528,22.179c-0.833,1.755-3.816,3.425-5.035,4.938c-2.26,2.807-23.488,14.348-25.334,16.666
				c-0.078,0.098-0.152,0.203-0.228,0.306l-0.289-17.533c0.17-0.13,0.339-0.27,0.503-0.435c1.095-1.095-0.204-3.52-0.599-5.334
				l-0.023-1.403c0.032-0.093,0.068-0.184,0.122-0.263c2-2.5,4-0.5,5.5-1.5c3-3,5.5-1.5,5-8.5c-0.168-2.354-0.732-3.968-1.312-5.403
				c1.897-0.363,3.817-0.61,5.748-0.704c-0.039-1.145-0.538-2.311-1.615-2.362c4.563-3.012,8.043-7.629,9.681-12.845
				c1.666,2.203,3.46,4.508,6.029,5.522c2.569,1.015,6.106,0.107,6.933-2.528c0.695-2.213-0.13-5.619,2.129-6.146
				c0.996,2.267,4.431,2.945,6.213,1.227c2.483-2.394,0.846-6.515-0.757-9.569c-1.22-2.324-2.139-5.474-1.219-7.648
				c3.379-0.859,7.072-0.495,10.173,1.109c-0.643-5.366-0.595-12.119,4.225-14.564c-2.323-0.557-4.307-2.36-5.084-4.62
				c2.566-0.093,4.894-2.272,5.155-4.826c0.262-2.555-1.574-5.161-4.068-5.773c2.637,0.296,5.388,0.579,7.878-0.339
				c2.49-0.918,4.606-3.436,4.136-6.048c3.475,2.759,6.294,6.339,8.161,10.365c1.047-4.487,6.812-7.129,10.894-4.994
				c0.834,0.436,1.772,1.046,2.635,0.67c1.281-0.56,0.893-2.425,0.598-3.792c-0.817-3.79,1.141-8.008,4.565-9.827
				c0.917-0.487,2.049-1.009,2.527-1.833c1.958,0.849,3.666,2.269,4.74,4.116c0.591,1.015,1.189,2.277,2.352,2.444
				c3.025,0.435,2.444-6.253,5.498-6.396c0.83-0.039,1.563,0.499,2.218,1.009c4.463,3.479,8.926,6.957,13.39,10.436
				c0.771-2.292,1.542-4.583,2.313-6.875c0.205-0.608,0.531-1.321,1.169-1.392c0.595-0.067,1.058,0.471,1.479,0.898
				c1.937,1.966,5.343,2.244,7.573,0.618c2.23-1.626,3.007-4.954,1.728-7.399c-0.479-0.916-1.218-1.752-1.304-2.781
				c-0.262-3.139,4.842-3.493,6.583-6.118c1.298-1.958,0.354-4.535-0.087-6.842c-0.442-2.307,0.374-5.476,2.722-5.541
				c2.642-0.074,3.812,3.922,6.437,4.217c2.353,0.265,3.804-2.505,5.918-3.571c2.52-1.27,6.402-0.354,7.643-2.889
				c1.173-2.396-1.574-5.129-1.365-7.698c1.953-2.055,4.481-3.861,6.98-2.834c4.603,1.893,3.164,11.09,8.116,11.58
				c2.025,0.201,4.289-1.4,6.018-0.82c0.519,3.991-4.698,5.858-3.963,10.099c0.223,1.291,0.824,1.983,1.743,2.853
				c1.371,1.3,1.369,2.06,2.285,3.642c1.224,2.115,3.768,2.646,5.974,1.972c4.017-1.228,4.015-4.92,5.909-7.823
				c0.868,0.472,1.672,1.172,2.604,1.554c0.948,0.748,1.97,1.394,3.081,1.896c0.661,0.299,1.389,0.314,1.98,0.003
				c0.807,1.332,1.691,2.618,2.671,3.83c0.584,0.724,1.27,1.468,2.185,1.636c2.772,0.509,3.515-3.998,5.981-5.361
				c2.678-1.478,5.657,1.358,7.258,3.964c1.601,2.605,3.949,5.741,6.915,4.991c2.586-0.654,3.47-3.816,3.897-6.451
				c0.493-3.048,0.986-6.096,1.48-9.144c0.205-1.269,0.387-2.63,0.219-3.886c0.709-0.996,1.461-1.959,2.287-2.86
				c1.35,0.847,1.471,2.709,1.77,4.273c0.299,1.563,1.483,3.381,3.024,2.979c1.488-0.389,1.689-2.354,2.009-3.859
				c0.321-1.504,2.142-3.112,3.147-1.948c0.621,0.717,0.223,1.898,0.708,2.712c0.904,1.512,3.37,0.245,4.965,0.994
				c1.513,0.71,1.566,2.853,1.112,4.462c-0.452,1.609-1.17,3.37-0.433,4.87c1.218,2.482,5.313,1.644,6.754-0.715
				c1.44-2.359,1.205-5.321,1.44-8.076c0.045-0.523,0.135-1.096,0.533-1.437c0.341-0.289,0.822-0.334,1.268-0.312
				c1.83,0.092,3.56,1.19,4.47,2.775c0.174,2.784,0.346,5.567,0.519,8.351c0.142,2.295-0.213,5.443,1.89,7.011
				c2.674,1.995,6.972,0.725,10.607-0.978c0.137,0.029,0.276,0.057,0.408,0.088c0.773,0.597,1.407,1.313,1.744,2.247
				c1.51,1.408,1.228,2.438-0.846,3.089c-0.509,0.382-0.997,0.789-1.464,1.225c-1.073,1.233-1.897,2.613-1.749,4.277
				c0.17,1.913,1.38,3.081,3.138,3.663c3.424,1.133,6.429-1.573,6.335,4.346c-0.078,4.959-1.723,8.303,4.939,7.782
				c5.06-0.396,8.971-2.396,11.881-6.343c1.539,2.005-0.08,8.795,2.076,10.008c2.301,1.296,7.8-4.378,10.106-3.288
				c0.048,0.022,0.09,0.066,0.135,0.094c-0.001,0.162,0.013,0.329,0.052,0.504c1.466,6.676,2.738,13.389,3.741,20.151
				c0.419,2.822,0.281,7.348,4.232,7.255c3.483-0.081,4.807-4.581,5.833-7.136c1.383-3.442,2.386-6.963,3.109-10.558
				c1.253,2.28,2.491,4.481,3.645,4.709c2.46,0.485,3.213-7.607,5.527-7.4c0.26,0.023,0.563,0.161,0.887,0.361
				c0.299,1.662,0.755,3.295,1.381,4.864c0.238,0.599,0.535,1.229,1.098,1.546c0.994,0.56,2.004-0.119,3.036-0.825
				c1.448,1.574,2.776,2.839,3.627,2.806c0.712-0.029,0.963-0.886,1.034-2.066c1.558,3.448-0.205,7.721,0.893,11.407
				c0.255,0.857,0.703,1.71,1.474,2.163c1.421,0.835,3.271-0.03,4.404-1.223c1.136-1.193,1.933-2.721,3.269-3.686
				c0.61-0.441,1.407-0.683,2.168-0.69c-1.419,1.827-2.405,3.894-2.329,6.171c0.13,3.814,5.06,7.149,7.893,4.593
				c0.133,4.884,0.855,9.752,2.146,14.465c-2.666-0.477-5.582-0.919-7.949,0.398c-2.368,1.315-3.343,5.191-1.077,6.678
				c1.699,1.116,4.02,0.264,5.966,0.855C441.785,167.968,442.958,171.277,442.224,173.905z M345.482,444.749
				c-0.93-0.857-1.859-1.964-2.789-2.429c0.133-0.198,0.244-0.402,0.354-0.607c1.246,0.303,2.097-0.052,2.649-0.526
				c0.04,0.176,0.071,0.356,0.087,0.543C345.87,442.728,345.666,443.743,345.482,444.749z M474.616,280.224
				c-3.137-0.85-6.272-1.699-9.411-2.55c-0.94-0.254-2.116-0.44-2.739,0.308c-0.359,0.435-0.393,1.048-0.375,1.612
				c0.123,3.74,1.906,7.396,4.779,9.795c0.808,0.675,1.729,1.293,2.183,2.243c1.413,2.96-2.439,5.527-5.44,6.852
				c-2.999,1.325-6.192,5.187-3.684,7.299c-2.781,0.551-5.564,1.1-8.346,1.649c0.525,2.227,2.623,3.984,4.907,4.111
				c1.18,0.065,2.415-0.243,3.522,0.129l-1.79,2.473c-2.317,1.292-3.342,4.432-2.358,6.897c0.982,2.464,3.765,4.027,6.401,3.724
				c-1.107,2.45-2.422,4.806-3.928,7.034c-0.524,0.773-1.159,1.592-2.076,1.772c-0.355,0.069-0.713,0.028-1.065-0.061
				c5.055,6.41,8.104,14.444,8.104,23.089c0,6.512-1.73,12.677-4.742,18.064c-0.428,0.94-0.878,1.866-1.38,2.765
				c-0.077,0.171-0.146,0.345-0.227,0.514c-0.725,3.51-1.94,6.857-3.587,9.957c0.812,2.698,1.312,5.518,1.483,8.414
				c-2.824,0.19-4.091,2.042-5.363,3.949l-3.133-215.966c0.518-0.047,1.031-0.135,1.536-0.269c1.022-0.271,2.049-0.71,3.099-0.572
				c1.157,0.152,2.099,0.972,2.964,1.754c2.473,2.237,4.943,4.474,7.417,6.711c1.085,0.982,2.275,2.363,1.74,3.725
				c-0.521,1.329-2.346,1.63-3.144,2.813c-1.495,2.221,1.64,4.715,4.265,5.235c2.626,0.52,6.071,1.312,6.263,3.982
				c-3.246,0.422-5.895,3.583-5.741,6.854c0.153,3.271,3.086,6.17,6.357,6.287c-3.581,2.276-7.164,4.554-10.745,6.831
				c3.557,2.189,7.291,4.088,11.154,5.673c-3.601-0.313-5.779,4.905-3.63,7.812c0.173,0.235,0.387,0.425,0.59,0.624
				c-0.535,2.583,0.361,5.534,2.638,6.936c1.463,0.9,3.41,1.329,4.164,2.871c1.536,3.143-3.592,6.295-2.75,9.689
				c0.769,3.104,5.587,3.238,7.107,6.053C481.934,271.567,474.754,275.382,474.616,280.224z"/>
			<path style="fill:#FFFFFF;" d="M86.36,416.654c0.187,0.376,0.391,0.755,0.608,1.134c0.122-0.341,0.25-0.71,0.392-1.134H86.36z"/>
			<path style="fill:#FFFFFF;" d="M259.36,453.654c0.012,0.023,0.02,0.052,0.031,0.076
				C259.488,453.684,259.499,453.654,259.36,453.654z"/>
		</g>
		<g>
			<g>
				<circle style="fill-rule:evenodd;clip-rule:evenodd;fill:#23231C;" cx="122.573" cy="331.305" r="11.375"/>
				<circle style="fill-rule:evenodd;clip-rule:evenodd;fill:#23231C;" cx="214.823" cy="331.305" r="11.375"/>
			</g>
			<g>
				<path style="fill-rule:evenodd;clip-rule:evenodd;fill:#FFFFFF;" d="M294.004,302.797c1.316,0.793,2.821,0.98,4.278,1.044
					c2.142,0.092,4.297-0.059,6.444-0.146c2.055-0.083,4.108-0.298,6.162-0.291c1,0.002,2.032,0.282,2.99,0.614
					c0.852,0.294,0.853,0.981,0.021,1.388c-0.568,0.279-1.231,0.413-1.867,0.486c-0.597,0.072-1.215-0.002-1.822-0.046
					c-1.645-0.116-3.005,0.579-4.271,1.508c-0.852,0.624-0.875,0.733-0.569,1.779c0.839,2.869,1.693,5.734,2.542,8.601
					c0.225,0.762,0.461,1.522,0.674,2.285c0.136,0.488,0.168,1.001,0.816,1.175c0.174,0.045,0.287,0.442,0.368,0.697
					c0.218,0.665,0.394,1.344,0.603,2.014c0.254,0.814,0.301,0.873,1.203,0.771c1.438-0.162,2.869-0.384,4.303-0.578
					c2.544-0.35,5.088-0.703,7.632-1.044c2.73-0.365,5.461-0.73,8.195-1.073c1.854-0.232,3.713-0.429,5.571-0.632
					c2.506-0.274,5.013-0.561,7.524-0.799c1.768-0.166,3.54-0.261,5.313-0.383c1.564-0.106,1.556-0.106,1.022-1.626
					c-0.758-2.16-1.51-4.324-2.237-6.494c-0.37-1.105-0.423-1.064,0.757-1.426c0.626-0.192,1.245-0.403,1.854-0.642
					c0.473-0.185,0.834-0.25,1.229,0.23c0.178,0.217,0.678,0.224,1.031,0.227c1.873,0.02,3.748-0.045,5.617,0.027
					c1.299,0.051,2.591,0.288,3.889,0.415c1.889,0.185,3.621-0.176,5.029-1.559c0.2-0.195,0.372-0.421,0.57-0.619
					c0.911-0.914,2.177-0.723,2.762,0.426c0.104,0.203,0.242,0.465,0.194,0.658c-0.393,1.588,0.491,2.971,0.681,4.462
					c0.047,0.369,0.161,0.759,0.093,1.108c-0.243,1.223-0.12,2.417,0.127,3.615c0.022,0.107-0.044,0.23-0.068,0.346
					c-0.125-0.047-0.273-0.067-0.372-0.147c-0.863-0.701-0.931-1.67-0.879-2.673c0.022-0.42,0.154-0.858,0.069-1.253
					c-0.124-0.576-0.292-1.198-0.63-1.662c-0.609-0.833-1.196-0.858-2.035-0.235c-0.937,0.692-1.44,1.517-1.533,2.801
					c-0.324,4.496-3.15,6.987-6.978,7.858c-0.518,0.117-0.792-0.105-1.067-0.45c-0.343-0.432-0.513-0.945-0.303-1.438
					c0.1-0.231,0.506-0.374,0.802-0.472c1.078-0.356,2.074-0.847,2.937-1.6c0.871-0.761,1.473-1.688,1.739-2.817
					c0.391-1.664-0.229-3.017-1.813-3.646c-0.857-0.34-1.802-0.604-2.712-0.625c-1.77-0.039-3.548,0.086-5.317,0.208
					c-0.835,0.058-0.892,0.183-0.641,0.964c0.686,2.135,1.41,4.259,2.104,6.391c0.797,2.443,1.562,4.897,2.378,7.333
					c0.18,0.533,0.172,1.209,0.929,1.452c0.191,0.063,0.277,0.555,0.352,0.864c0.249,1.044,0.464,2.097,0.708,3.144
					c0.114,0.487,0.32,0.678,0.89,0.438c1.771-0.747,3.632-1.203,5.533-1.488c3.879-0.582,7.766-0.612,11.552,0.434
					c11.019,3.044,18.248,10.064,21.03,21.178c2.288,9.133,0.289,17.55-5.646,24.897c-4.729,5.858-10.913,9.339-18.386,10.288
					c-9.99,1.271-18.449-1.928-25.273-9.287c-4.096-4.416-6.492-9.739-7.134-15.706c-0.914-8.508,1.38-16.112,7.102-22.585
					c1.682-1.902,3.577-3.564,5.714-4.939c0.439-0.284,0.529-0.532,0.32-1.013c-0.697-1.602-1.102-3.263-0.917-5.033
					c0.021-0.21-0.133-0.439-0.21-0.658c-0.085-0.247-0.229-0.259-0.406-0.092c-0.307,0.29-0.628,0.564-0.912,0.875
					c-3.768,4.099-7.62,8.125-11.271,12.326c-3.956,4.554-7.727,9.268-11.57,13.92c-0.895,1.083-1.749,2.198-2.645,3.277
					c-0.356,0.428-0.354,0.732,0.02,1.188c1.866,2.278,2.291,4.88,1.438,7.655c-1.188,3.877-5.383,6.206-9.341,5.305
					c-2.503-0.568-5.018-1.087-7.529-1.618c-0.895-0.189-0.91-0.182-1.346,0.682c-1.598,3.166-3.677,5.966-6.287,8.372
					c-3.874,3.567-8.381,5.936-13.532,7.005c-7.057,1.465-13.795,0.483-20.057-3.081c-7.525-4.285-12.182-10.751-14.063-19.209
					c-0.179-0.803-0.37-1.603-0.556-2.404c0-2.247,0-4.494,0-6.742c0.08-0.207,0.19-0.41,0.239-0.624
					c0.398-1.727,0.602-3.523,1.206-5.174c4.049-11.02,11.92-17.596,23.502-19.378c5.385-0.827,10.734-0.057,15.734,2.358
					c0.759,0.366,1.503,0.757,2.251,1.14c0.783,0.4,0.782,0.402,1.362-0.301c0.059-0.072,0.118-0.145,0.175-0.219
					c1.831-2.428,3.613-4.893,5.515-7.265c0.828-1.031,1.067-1.994,0.521-3.195c-0.249-0.549-0.38-1.152-0.557-1.733
					c-0.069-0.221-0.234-0.504-0.158-0.661c0.379-0.789-0.046-1.45-0.258-2.143c-0.694-2.278-1.374-4.562-2.106-6.829
					c-0.848-2.617-2.419-4.533-5.27-5.073c-2.529-0.479-4.69-1.838-6.972-2.897c-1.307-0.608-1.345-1.427-0.351-2.505
					C292.506,302.797,293.255,302.797,294.004,302.797z M371.503,336.234c-2.949-0.054-5.908,0.551-8.776,1.634
					c-0.816,0.309-0.87,0.454-0.65,1.243c0.038,0.134,0.113,0.257,0.157,0.391c2.127,6.264,4.87,12.243,8.262,17.925
					c0.337,0.565,0.686,0.978,1.454,1.114c1.196,0.207,1.871,1.305,1.695,2.371c-0.205,1.255-1.26,1.972-2.578,1.756
					c-1.141-0.189-1.941-1.317-1.617-2.499c0.188-0.686,0.017-1.139-0.358-1.663c-0.844-1.179-1.64-2.392-2.45-3.592
					c-2.986-4.426-5.69-9.018-8.077-13.793c-0.441-0.884-0.535-0.932-1.314-0.268c-1.315,1.118-2.687,2.204-3.827,3.487
					c-5.154,5.805-7.222,12.617-5.951,20.267c2.271,13.675,15.289,22.399,28.438,19.985c13.367-2.457,22.05-15.455,19.585-28.484
					C393.398,345.029,383.532,336.244,371.503,336.234z M286.154,336.227c-4.805,0.004-8.74,1.051-12.399,3.099
					c-9.022,5.05-13.754,14.976-12.239,24.957c0.688,4.526,2.493,8.6,5.537,12.068c5.482,6.25,12.364,9.124,20.676,8.514
					c3.999-0.295,7.671-1.566,11.038-3.719c3.497-2.236,6.246-5.186,8.24-8.829c0.373-0.682,0.309-0.796-0.397-0.94
					c-5.578-1.14-11.159-2.271-16.737-3.41c-2.607-0.532-5.208-1.09-7.816-1.608c-0.643-0.129-1.001-0.51-1.137-1.092
					c-0.144-0.616,0.117-1.196,0.67-1.399c0.748-0.271,0.484-0.55,0.219-0.996c-1.728-2.898,0.311-6.563,3.563-6.685
					c0.582-0.021,0.927-0.23,1.256-0.698c2.852-4.054,5.726-8.092,8.602-12.126c0.788-1.105,1.598-2.193,2.419-3.272
					c0.265-0.351,0.214-0.58-0.15-0.78c-0.287-0.16-0.566-0.331-0.859-0.476C293.141,337.115,289.46,336.193,286.154,336.227z
					 M343.485,323.585c-2.809,0.106-5.567,0.211-8.325,0.315c-0.468,0.018-0.938,0.012-1.403,0.056
					c-4.278,0.411-8.56,0.822-12.779,1.652c-2.885,0.567-5.74,1.282-8.603,1.96c-0.717,0.17-0.766,0.304-0.564,0.99
					c0.353,1.211,0.728,2.415,1.094,3.621c1.78,5.855,3.558,11.711,5.342,17.565c0.789,2.593,1.615,5.175,2.372,7.776
					c0.192,0.661,0.515,0.87,1.182,0.904c0.924,0.051,1.846,0.222,2.757,0.404c0.324,0.065,0.526,0.063,0.707-0.224
					c0.124-0.196,0.273-0.378,0.42-0.561c3.2-4.029,6.334-8.113,9.617-12.073c4.808-5.799,9.721-11.509,14.593-17.254
					c0.999-1.179,2.015-2.343,3.01-3.521c0.341-0.404,0.358-0.898,0.021-1.089c-0.226-0.13-0.525-0.166-0.795-0.178
					C349.232,323.807,346.335,323.697,343.485,323.585z M308.16,357.579c0.121,0,0.355,0,0.59,0c1.028-0.004,1.099-0.09,0.932-1.135
					c-0.008-0.046-0.021-0.092-0.03-0.137c-0.968-5.171-3.352-9.587-7.103-13.263c-0.633-0.621-1.327-1.184-2.027-1.729
					c-0.571-0.444-0.635-0.408-1.121,0.187c-0.088,0.109-0.163,0.228-0.247,0.34c-3.415,4.457-6.833,8.91-10.24,13.372
					c-0.213,0.279-0.345,0.623-0.515,0.938c0.344,0.09,0.683,0.196,1.03,0.262c0.228,0.043,0.466,0.023,0.699,0.035
					c2.383,0.125,4.765,0.225,7.146,0.377C300.866,357.055,304.456,357.321,308.16,357.579z M309.603,365.646
					c-0.014-0.498-0.189-0.743-0.66-0.813c-0.368-0.053-0.729-0.159-1.094-0.228c-3.487-0.637-6.975-1.272-10.463-1.905
					c-2.065-0.374-4.131-0.746-6.198-1.112c-0.99-0.177-0.995-0.169-1.446,0.772c-0.646,1.341-1.655,2.209-3.126,2.58
					c-0.813,0.204-1.569,0.089-2.35-0.075c-0.19-0.039-0.523-0.053-0.569,0.037c-0.096,0.185-0.096,0.461-0.034,0.672
					c0.041,0.14,0.24,0.282,0.396,0.329c0.445,0.131,0.904,0.225,1.363,0.317c4.572,0.916,9.147,1.829,13.719,2.744
					c2.653,0.531,5.308,1.055,7.959,1.594c0.379,0.078,0.742,0.218,0.917-0.287C308.547,368.73,309.074,367.188,309.603,365.646z
					 M316.555,358.092c-0.172,0-0.078-0.002,0.015,0c1.107,0.017,1.133,0.011,0.819-1.039c-0.772-2.593-1.56-5.182-2.358-7.767
					c-1.953-6.332-3.914-12.662-5.875-18.991c-0.17-0.549-0.345-0.594-0.723-0.13c-1.801,2.21-3.59,4.429-5.365,6.659
					c-0.444,0.56-0.394,0.563,0.2,1.083c1.125,0.984,2.314,1.914,3.321,3.009c3.993,4.334,6.556,9.385,7.436,15.252
					C314.304,358.032,314.335,358.028,316.555,358.092z M290.331,357.269c-0.133,0-0.6-0.006-1.068,0.005
					c-0.133,0.003-0.266,0.06-0.397,0.091c0.044,0.117,0.075,0.236,0.132,0.346c0.303,0.572,0.695,1.115,0.895,1.721
					c0.194,0.583,0.533,0.829,1.088,0.897c1.573,0.193,3.148,0.393,4.724,0.586c2.828,0.349,5.658,0.692,8.485,1.041
					c1.668,0.206,3.334,0.427,5.005,0.621c0.682,0.08,0.783-0.021,0.81-0.763c0.021-0.654,0.016-1.311,0.007-1.965
					c-0.015-1.314-0.018-1.31-1.295-1.378c-2.428-0.129-4.857-0.241-7.283-0.403C297.842,357.83,294.256,357.554,290.331,357.269z
					 M313.836,366.404c-0.061,0.207-0.095,0.314-0.127,0.423c-0.414,1.383-0.791,2.778-1.258,4.144
					c-0.171,0.502-0.049,0.692,0.403,0.787c1.049,0.221,2.099,0.437,3.148,0.65c0.086,0.016,0.18-0.016,0.271-0.025
					c-0.023-0.105-0.013-0.246-0.077-0.314c-1.37-1.447-2.082-3.183-2.273-5.149C313.911,366.78,313.879,366.645,313.836,366.404z
					 M316.207,358.867c-0.009,0.039-0.019,0.08-0.025,0.12c-0.373-0.017-0.747-0.021-1.117-0.053
					c-0.523-0.045-0.806,0.088-0.677,0.7c0.076,0.359,0.073,0.742,0.056,1.113c-0.033,0.649-0.111,1.295-0.15,1.944
					c-0.008,0.128,0.068,0.261,0.105,0.392c0.138-0.096,0.31-0.164,0.41-0.29c0.632-0.799,1.225-1.628,1.879-2.406
					c0.345-0.411,0.785-0.741,1.183-1.108C317.315,359.142,316.761,359.004,316.207,358.867z"/>
				<path style="fill-rule:evenodd;clip-rule:evenodd;fill:#FFFFFF;" d="M244.704,328.546c-0.851,0.07-1.713,0-2.571,0.015
					c-0.39,0.007-0.632-0.12-0.709-0.523c-0.054-0.278-0.183-0.545-0.209-0.827c-0.084-0.896-0.339-1.991-0.764-3.234
					c0.002-0.015,0.005-0.028,0.005-0.044c0.106-3.551,0.858-4.048,1.708-7.273c0.849-3.227-2.269-5.507-5.501-5.791
					c-3.232-0.283-2.259-3.94-2.259-3.94l-0.112-0.138c0.595-2.361,1.165-5.919,1.165-10.943l-0.002,0.002
					c2.849-1.211,5.376-2.514,5.376-3.325c0-2.978-2.21-2.553-2.21-2.553l-11.04,4.826l-0.019,4.021c0,0,2.277-0.761,4.944-1.784
					c-0.502,1.104-3.47,7.437-5.559,7.507c0,0,0,0.005,0.002,0.006c-4.933-4.721-11.179-9.289-18.805-12.878
					c-6.568-2.712-13.416-3.177-20.518-3.347c-5.854-0.141-24.296,0.557-27.543,1.732c-2.251,0.815-4.03,1.76-5.219,3.837
					c-1.464,2.558-4.63,6.134-6.061,8.712c-0.306,0.551-0.615,0.841-1.302,0.847c-3.141,0.034-6.259,0.357-9.374,0.786
					c-5.535,0.765-16.356,2.061-21.481,4.331c-6.204,2.753-9.14,5.441-12.152,11.519c-1.207,2.435-2.06,5.009-2.579,7.679
					c-0.113,0.585-0.361,0.824-0.941,0.801c-0.475-0.02-0.952,0.01-1.428,0.032c-0.925,0.043-2.792,0.815-2.792,2.792
					c0,2.333,1.374,3.292,3.655,3.292c0.644,0,0.925,0.188,1.136,0.779c0.615,1.728,1.464,2.302,3.308,2.335
					c0.858,0.016,1.718,0.046,2.573-0.011c0.667-0.044,1.047,0.192,1.321,0.797c0.735,1.629,1.823,3.016,3.135,4.213
					c4.504,4.11,9.722,5.233,15.491,3.399c3.936-1.25,6.861-3.842,8.734-7.541c0.332-0.655,0.716-0.946,1.425-0.858
					c0.235,0.028,0.476,0.004,0.715,0.004c18.49,0,61.586,0.027,61.917-0.005c0.449-0.041,0.709,0.165,0.891,0.548
					c0.143,0.302,0.304,0.594,0.47,0.882c3.118,5.417,8.88,8.623,15.689,7.634c4.987-0.724,8.797-3.468,11.213-7.957
					c0.436-0.812,0.882-1.155,1.85-1.13c2.953,0.079,5.91,0.047,8.863,0.021c1.803-0.017,2.72-0.701,3.244-2.398
					c0.154-0.494,0.376-0.713,0.892-0.703c0.811,0.017,1.62-0.007,2.431-0.017c0.863-0.012,2.937-0.469,2.937-2.807
					C248.642,329.524,246.605,328.391,244.704,328.546z M122.473,340.822c-5.593,0.032-9.311-4.539-9.184-9.279
					c-0.04-4.68,3.629-9.149,9.205-9.113c5.802,0.038,9.243,4.819,9.158,9.348C131.568,336.248,128.149,340.787,122.473,340.822z
					 M182.538,303.95c-0.001,2.176-0.424,2.611-2.552,2.612c-3.668,0.005-18.339-0.067-22.003,0.028
					c-2.045,0.055-2.997-1.208-1.852-3.121c0.952-1.588,1.791-3.246,2.669-4.88c0.62-1.151,1.61-1.817,2.8-2.285
					c2.549-1.002,14.28-2.049,17.462-2.201c0.707-0.033,3.453,0.206,3.453,1.559C182.515,295.995,182.539,301.52,182.538,303.95z
					 M187.166,306.536c-0.942-0.138-1.435-0.659-1.463-1.625c-0.038-1.284-0.034-6.905-0.008-8.428
					c0.023-1.462,0.643-2.381,2.043-2.188c5.63,0,13.795,1.205,19.425,4.445c2.212,1.142,6.192,5.073,6.31,5.373
					c0.344,0.88,0.059,2.254-0.885,2.254C210.763,306.368,187.539,306.589,187.166,306.536z M214.909,340.822
					c-5.76,0.004-9.25-4.694-9.196-9.294c0.052-4.587,3.564-9.13,9.246-9.099c5.586,0.031,9.171,4.558,9.113,9.217
					C224.121,336.205,220.581,340.817,214.909,340.822z"/>
			</g>
		</g>
	</g>
</g>
</svg>
